<?xml version="1.0" standalone="no"?><?xml-stylesheet type="text/css" href="https://www.processon.com/themes/default/mind/icons/icons.css" ?><!DOCTYPE svg PUBLIC "-//W3C//DTD SVG 1.1//EN" "http://www.w3.org/Graphics/SVG/1.1/DTD/svg11.dtd"><svg xmlns="http://www.w3.org/2000/svg" xlink="http://www.w3.org/1999/xlink" id="mind-svg-con" version="1.1" width="642px" height="582.0000381469727px" style="position: absolute; left: 0px; top: 0px; width: 642px; height: 582px; background: rgb(247, 247, 247); z-index: 999;"><defs></defs><g id="svgbackgroundid"><defs></defs><rect x="0" y="0" width="642" height="582.0000381469727" fill="#F7F7F7"></rect></g><g transform="translate(-9884, -9632.000389099121)" id="sdjakdjak10"><defs></defs><g class="svg-topic-con" transform="translate(0.5,0.5)"><path part="right" sub="true" id="line_9af45b929ca8" d="M 10000 9935.500396728516 L 10081 9935.500396728516 C 10121 9935.500396728516 10121 9692.5 10186 9692.5 L 10372 9692.5" stroke="#FA5465" fill="none" stroke-width="3"></path><path part="right" sub="true" id="line_61bee6182dd0" d="M 10000 9935.500396728516 L 10081 9935.500396728516 C 10121 9935.500396728516 10121 9753.5 10186 9753.5 L 10369 9753.5" stroke="#7549C5" fill="none" stroke-width="3"></path><path part="right" sub="true" id="line_6e3d3def7e69" d="M 10000 9935.500396728516 L 10081 9935.500396728516 C 10121 9935.500396728516 10121 9814.5 10186 9814.5 L 10337 9814.5" stroke="#0D7C82" fill="none" stroke-width="3"></path><path part="right" sub="true" id="line_7db172775ab7" d="M 10000 9935.500396728516 L 10081 9935.500396728516 C 10121 9935.500396728516 10121 9876.5 10186 9876.5 L 10371 9876.5" stroke="#F88A35" fill="none" stroke-width="3"></path><path part="right" sub="true" id="line_ee9388b4f736" d="M 10000 9935.500396728516 L 10081 9935.500396728516 C 10121 9935.500396728516 10121 9937.5 10186 9937.5 L 10332 9937.5" stroke="#0FBAB0" fill="none" stroke-width="3"></path><path part="right" sub="true" id="line_909095e82c50" d="M 10000 9935.500396728516 L 10081 9935.500396728516 C 10121 9935.500396728516 10121 9998.5 10186 9998.5 L 10392 9998.5" stroke="#02ACF4" fill="none" stroke-width="3"></path><path part="right" sub="true" id="line_e28f4229e086" d="M 10000 9935.500396728516 L 10081 9935.500396728516 C 10121 9935.500396728516 10121 10060.5 10186 10060.5 L 10428 10060.5" stroke="#DD489D" fill="none" stroke-width="3"></path><path part="right" sub="true" id="line_3e95087ab4c9" d="M 10000 9935.500396728516 L 10081 9935.500396728516 C 10121 9935.500396728516 10121 10121.5 10186 10121.5 L 10398 10121.5" stroke="#0F80C4" fill="none" stroke-width="3"></path><path part="right" sub="true" id="line_694a613b3458" d="M 10000 9935.500396728516 L 10081 9935.500396728516 C 10121 9935.500396728516 10121 10182.5 10186 10182.5 L 10496 10182.5" stroke="#FCB52A" fill="none" stroke-width="3"></path></g><g class="svg-connection-con" transform="translate(0.5,0.5)"></g><g class="svg-freesums-con" transform="translate(0.5,0.5)"></g></g><g id="694a613b3458"><rect x="302" y="520.0000381469727" rx="1px" ry="1px" width="310" height="30" style="fill: transparent; stroke:none;"></rect><g><text text-anchor="start" align="top" anchor="start" font-family="微软雅黑" font-size="16px" font-weight="normal" fill="rgb(13, 11, 34)"><tspan x="316" y="540.8750015258789"><tspan>Spring Cloud与Docker微服务架构实战</tspan></tspan></text></g></g><g id="3e95087ab4c9"><rect x="302" y="459.00003814697266" rx="1px" ry="1px" width="212" height="30" style="fill: transparent; stroke:none;"></rect><g><text text-anchor="start" align="top" anchor="start" font-family="微软雅黑" font-size="16px" font-weight="normal" fill="rgb(13, 11, 34)"><tspan x="316" y="479.87500152587893"><tspan>MongoDB实战（第2版）</tspan></tspan></text></g></g><g id="e28f4229e086"><rect x="302" y="398.00000762939453" rx="1px" ry="1px" width="242" height="30" style="fill: transparent; stroke:none;"></rect><g><text text-anchor="start" align="top" anchor="start" font-family="微软雅黑" font-size="16px" font-weight="normal" fill="rgb(13, 11, 34)"><tspan x="316" y="418.87500152587893"><tspan>Elasticsearch 技术解析与实战</tspan></tspan></text></g></g><g id="909095e82c50"><rect x="302" y="336.00000762939453" rx="1px" ry="1px" width="206" height="30" style="fill: transparent; stroke:none;"></rect><g><text text-anchor="start" align="top" anchor="start" font-family="微软雅黑" font-size="16px" font-weight="normal" fill="rgb(13, 11, 34)"><tspan x="316" y="356.87500152587893"><tspan>循序渐进Linux（第2版）</tspan></tspan></text></g></g><g id="ee9388b4f736"><rect x="302" y="275.00000762939453" rx="1px" ry="1px" width="146" height="30" style="fill: transparent; stroke:none;"></rect><g><text text-anchor="start" align="top" anchor="start" font-family="微软雅黑" font-size="16px" font-weight="normal" fill="rgb(13, 11, 34)"><tspan x="316" y="295.87500152587893"><tspan>深入浅出MySQL</tspan></tspan></text></g></g><g id="7db172775ab7"><rect x="302" y="214.00000762939453" rx="1px" ry="1px" width="185" height="30" style="fill: transparent; stroke:none;"></rect><g><text text-anchor="start" align="top" anchor="start" font-family="微软雅黑" font-size="16px" font-weight="normal" fill="rgb(13, 11, 34)"><tspan x="316" y="234.8750015258789"><tspan>MyBatis从入门到精通</tspan></tspan></text></g></g><g id="6e3d3def7e69"><rect x="302" y="152.00000762939453" rx="1px" ry="1px" width="151" height="30" style="fill: transparent; stroke:none;"></rect><g><text text-anchor="start" align="top" anchor="start" font-family="微软雅黑" font-size="16px" font-weight="normal" fill="rgb(13, 11, 34)"><tspan x="316" y="172.8750015258789"><tspan>Spring Boot实</tspan></tspan><tspan x="316" y="194.8750015258789"><tspan>战</tspan></tspan></text></g></g><g id="61bee6182dd0"><rect x="302" y="91.00000762939453" rx="1px" ry="1px" width="183" height="30" style="fill: transparent; stroke:none;"></rect><g><text text-anchor="start" align="top" anchor="start" font-family="微软雅黑" font-size="16px" font-weight="normal" fill="rgb(13, 11, 34)"><tspan x="316" y="111.8750015258789"><tspan>Spring实战（第4版）</tspan></tspan></text></g></g><g id="9af45b929ca8"><rect x="302" y="30" rx="1px" ry="1px" width="186" height="30" style="fill: transparent; stroke:none;"></rect><g><text text-anchor="start" align="top" anchor="start" font-family="微软雅黑" font-size="16px" font-weight="normal" fill="rgb(13, 11, 34)"><tspan x="316" y="50.87500152587891"><tspan>IntelliJ-IDEA-Tutorial</tspan></tspan></text></g></g><g transform="translate(302, 520.0000381469727)" id="sdjakdjak0"><g id="subline_694a613b3458" transform="translate(0.5,-0.5)"></g><g transform="translate(0.5,0)"></g><g class="svg-summary-con" transform="translate(0.5,0.5)"></g></g><g transform="translate(302, 459.00003814697266)" id="sdjakdjak1"><g id="subline_3e95087ab4c9" transform="translate(0.5,-0.5)"></g><g transform="translate(0.5,0)"></g><g class="svg-summary-con" transform="translate(0.5,0.5)"></g></g><g transform="translate(302, 398.00000762939453)" id="sdjakdjak2"><g id="subline_e28f4229e086" transform="translate(0.5,-0.5)"></g><g transform="translate(0.5,0)"></g><g class="svg-summary-con" transform="translate(0.5,0.5)"></g></g><g transform="translate(302, 336.00000762939453)" id="sdjakdjak3"><g id="subline_909095e82c50" transform="translate(0.5,-0.5)"></g><g transform="translate(0.5,0)"></g><g class="svg-summary-con" transform="translate(0.5,0.5)"></g></g><g transform="translate(302, 275.00000762939453)" id="sdjakdjak4"><g id="subline_ee9388b4f736" transform="translate(0.5,-0.5)"></g><g transform="translate(0.5,0)"></g><g class="svg-summary-con" transform="translate(0.5,0.5)"></g></g><g transform="translate(302, 214.00000762939453)" id="sdjakdjak5"><g id="subline_7db172775ab7" transform="translate(0.5,-0.5)"></g><g transform="translate(0.5,0)"></g><g class="svg-summary-con" transform="translate(0.5,0.5)"></g></g><g transform="translate(302, 152.00000762939453)" id="sdjakdjak6"><g id="subline_6e3d3def7e69" transform="translate(0.5,-0.5)"></g><g transform="translate(0.5,0)"></g><g class="svg-summary-con" transform="translate(0.5,0.5)"></g></g><g transform="translate(302, 91.00000762939453)" id="sdjakdjak7"><g id="subline_61bee6182dd0" transform="translate(0.5,-0.5)"></g><g transform="translate(0.5,0)"></g><g class="svg-summary-con" transform="translate(0.5,0.5)"></g></g><g transform="translate(302, 30)" id="sdjakdjak8"><g id="subline_9af45b929ca8" transform="translate(0.5,-0.5)"></g><g transform="translate(0.5,0)"></g><g class="svg-summary-con" transform="translate(0.5,0.5)"></g></g><g transform="translate(30, 270.00000762939453)" id="sdjakdjak9"><g id="subline_root" transform="translate(0.5,-0.5)"></g><g transform="translate(0.5,0)"></g><g class="svg-summary-con" transform="translate(0.5,0.5)"></g></g><g id="root"><rect x="30" y="270.00000762939453" rx="7px" ry="7px" width="172" height="68" style="fill: #ffffff; stroke:none;"></rect><g><text text-anchor="start" align="top" anchor="start" font-family="微软雅黑" font-size="24px" font-weight="normal" fill="rgb(42, 46, 54)"><tspan x="68" y="311.72501983642576"><tspan>推荐资料</tspan></tspan></text></g></g></svg>