<?xml version="1.0" standalone="no"?><?xml-stylesheet type="text/css" href="https://www.processon.com/themes/default/mind/icons/icons.css" ?><!DOCTYPE svg PUBLIC "-//W3C//DTD SVG 1.1//EN" "http://www.w3.org/Graphics/SVG/1.1/DTD/svg11.dtd">
<svg xmlns="http://www.w3.org/2000/svg" version="1.1" xlink="http://www.w3.org/1999/xlink" id="mind-svg-con" width="456px" height="275px" style="position: absolute; left: 0px; top: 0px; width: 456px; height: 275px; background: rgb(247, 247, 247); z-index: 999;"><defs></defs><g id="svgbackgroundid"><defs></defs><rect x="0" y="0" width="456" height="275" fill="#F7F7F7"></rect></g><g transform="translate(-9884, -9785.000389099121)" id="sdjakdjak5"><defs></defs><g class="svg-topic-con" transform="translate(0.5,0.5)"><path part="right" sub="true" id="line_6e40e100a441" d="M 10000 9935.50039100647 L 10081 9935.50039100647 C 10121 9935.50039100647 10121 9845.5 10186 9845.5 L 10310 9845.5" stroke="#BE49C4" fill="none" stroke-width="3"></path><path part="right" sub="true" id="line_bb4d21336d23" d="M 10000 9935.50039100647 L 10081 9935.50039100647 C 10121 9935.50039100647 10121 9906.5 10186 9906.5 L 10278 9906.5" stroke="#0F80C4" fill="none" stroke-width="3"></path><path part="right" sub="true" id="line_9074f1fb2c47" d="M 10000 9935.50039100647 L 10081 9935.50039100647 C 10121 9935.50039100647 10121 9968.5 10186 9968.5 L 10278 9968.5" stroke="#02ACF4" fill="none" stroke-width="3"></path><path part="right" sub="true" id="line_1c6360ed1d13" d="M 10000 9935.50039100647 L 10081 9935.50039100647 C 10121 9935.50039100647 10121 10029.5 10186 10029.5 L 10278 10029.5" stroke="#3D5EC2" fill="none" stroke-width="3"></path></g><g class="svg-connection-con" transform="translate(0.5,0.5)"></g><g class="svg-freesums-con" transform="translate(0.5,0.5)"></g></g><g id="1c6360ed1d13"><rect x="302" y="214" rx="1px" ry="1px" width="92" height="30" style="fill: transparent; stroke:none;"></rect><g><text text-anchor="start" align="top" anchor="start" font-family="微软雅黑" font-size="16px" font-weight="normal" fill="rgb(13, 11, 34)"><tspan x="316" y="234.8750015258789"><tspan>营销模块</tspan></tspan></text></g></g><g id="9074f1fb2c47"><rect x="302" y="153.00000381469727" rx="1px" ry="1px" width="92" height="30" style="fill: transparent; stroke:none;"></rect><g><text text-anchor="start" align="top" anchor="start" font-family="微软雅黑" font-size="16px" font-weight="normal" fill="rgb(13, 11, 34)"><tspan x="316" y="173.8750015258789"><tspan>订单模块</tspan></tspan></text></g></g><g id="bb4d21336d23"><rect x="302" y="91.00000154972076" rx="1px" ry="1px" width="92" height="30" style="fill: transparent; stroke:none;"></rect><g><text text-anchor="start" align="top" anchor="start" font-family="微软雅黑" font-size="16px" font-weight="normal" fill="rgb(13, 11, 34)"><tspan x="316" y="111.8750015258789"><tspan>商品模块</tspan></tspan></text></g></g><g id="6e40e100a441"><rect x="302" y="30" rx="1px" ry="1px" width="124" height="30" style="fill: transparent; stroke:none;"></rect><g><text text-anchor="start" align="top" anchor="start" font-family="微软雅黑" font-size="16px" font-weight="normal" fill="rgb(13, 11, 34)"><tspan x="316" y="50.87500152587891"><tspan>权限管理模块</tspan></tspan></text></g></g><g transform="translate(302, 214)" id="sdjakdjak0"><g id="subline_1c6360ed1d13" transform="translate(0.5,-0.5)"></g><g transform="translate(0.5,0)"></g><g class="svg-summary-con" transform="translate(0.5,0.5)"></g></g><g transform="translate(302, 153.00000381469727)" id="sdjakdjak1"><g id="subline_9074f1fb2c47" transform="translate(0.5,-0.5)"></g><g transform="translate(0.5,0)"></g><g class="svg-summary-con" transform="translate(0.5,0.5)"></g></g><g transform="translate(302, 91.00000154972076)" id="sdjakdjak2"><g id="subline_bb4d21336d23" transform="translate(0.5,-0.5)"></g><g transform="translate(0.5,0)"></g><g class="svg-summary-con" transform="translate(0.5,0.5)"></g></g><g transform="translate(302, 30)" id="sdjakdjak3"><g id="subline_6e40e100a441" transform="translate(0.5,-0.5)"></g><g transform="translate(0.5,0)"></g><g class="svg-summary-con" transform="translate(0.5,0.5)"></g></g><g transform="translate(30, 117.00000190734863)" id="sdjakdjak4"><g id="subline_root" transform="translate(0.5,-0.5)"></g><g transform="translate(0.5,0)"></g><g class="svg-summary-con" transform="translate(0.5,0.5)"></g></g><g id="root"><rect x="30" y="117.00000190734863" rx="7px" ry="7px" width="172" height="68" style="fill: #ffffff; stroke:none;"></rect><g><text text-anchor="start" align="top" anchor="start" font-family="微软雅黑" font-size="24px" font-weight="normal" fill="rgb(42, 46, 54)"><tspan x="68" y="158.72500076293946"><tspan>电商业务</tspan></tspan></text></g></g></svg>
