<?xml version="1.0" standalone="no"?><?xml-stylesheet type="text/css" href="https://www.processon.com/themes/default/mind/icons/icons.css" ?><!DOCTYPE svg PUBLIC "-//W3C//DTD SVG 1.1//EN" "http://www.w3.org/Graphics/SVG/1.1/DTD/svg11.dtd">
<svg xmlns="http://www.w3.org/2000/svg" version="1.1" xlink="http://www.w3.org/1999/xlink" id="mind-svg-con" width="647px" height="950px" style="position: absolute; left: 0px; top: 0px; width: 647px; height: 950px; background: rgb(247, 247, 247); z-index: 999;"><defs></defs><g id="svgbackgroundid"><defs></defs><rect x="0" y="0" width="647" height="950" fill="#F7F7F7"></rect></g><g transform="translate(-9884, -9449.000396728516)" id="sdjakdjak16"><defs></defs><g class="svg-topic-con" transform="translate(0.5,0.5)"><path part="right" sub="true" id="line_ec317d087f0a" d="M 10000 9935.50039100647 L 10081 9935.50039100647 C 10121 9935.50039100647 10121 9509.5 10186 9509.5 L 10420 9509.5" stroke="#0F80C4" fill="none" stroke-width="3"></path><path part="right" sub="true" id="line_553a59dbcbb6" d="M 10000 9935.50039100647 L 10081 9935.50039100647 C 10121 9935.50039100647 10121 9570.5 10186 9570.5 L 10408 9570.5" stroke="#F88A35" fill="none" stroke-width="3"></path><path part="right" sub="true" id="line_20d0bf652618" d="M 10000 9935.50039100647 L 10081 9935.50039100647 C 10121 9935.50039100647 10121 9632.5 10186 9632.5 L 10369 9632.5" stroke="#BE49C4" fill="none" stroke-width="3"></path><path part="right" sub="true" id="line_6c8bbc70f25a" d="M 10000 9935.50039100647 L 10081 9935.50039100647 C 10121 9935.50039100647 10121 9693.5 10186 9693.5 L 10358 9693.5" stroke="#7549C5" fill="none" stroke-width="3"></path><path part="right" sub="true" id="line_00b664e3f3fe" d="M 10000 9935.50039100647 L 10081 9935.50039100647 C 10121 9935.50039100647 10121 9754.5 10186 9754.5 L 10347 9754.5" stroke="#FA5465" fill="none" stroke-width="3"></path><path part="right" sub="true" id="line_5fe394f14550" d="M 10000 9935.50039100647 L 10081 9935.50039100647 C 10121 9935.50039100647 10121 9816.5 10186 9816.5 L 10501 9816.5" stroke="#FCB52A" fill="none" stroke-width="3"></path><path part="right" sub="true" id="line_819d9558c4f1" d="M 10000 9935.50039100647 L 10081 9935.50039100647 C 10121 9935.50039100647 10121 9877.5 10186 9877.5 L 10389 9877.5" stroke="#DD489D" fill="none" stroke-width="3"></path><path part="right" sub="true" id="line_5e13a48aca49" d="M 10000 9935.50039100647 L 10081 9935.50039100647 C 10121 9935.50039100647 10121 9938.5 10186 9938.5 L 10342 9938.5" stroke="#80BA4C" fill="none" stroke-width="3"></path><path part="right" sub="true" id="line_a857197f7916" d="M 10000 9935.50039100647 L 10081 9935.50039100647 C 10121 9935.50039100647 10121 10000.5 10186 10000.5 L 10342 10000.5" stroke="#FD5155" fill="none" stroke-width="3"></path><path part="right" sub="true" id="line_bf0876f39577" d="M 10000 9935.50039100647 L 10081 9935.50039100647 C 10121 9935.50039100647 10121 10061.5 10186 10061.5 L 10401 10061.5" stroke="#0FBAB0" fill="none" stroke-width="3"></path><path part="right" sub="true" id="line_6f4ac59e044f" d="M 10000 9935.50039100647 L 10081 9935.50039100647 C 10121 9935.50039100647 10121 10122.5 10186 10122.5 L 10397 10122.5" stroke="#3D5EC2" fill="none" stroke-width="3"></path><path part="right" sub="true" id="line_a210d91cbb75" d="M 10000 9935.50039100647 L 10081 9935.50039100647 C 10121 9935.50039100647 10121 10184.5 10186 10184.5 L 10390 10184.5" stroke="#0D7C82" fill="none" stroke-width="3"></path><path part="right" sub="true" id="line_fd99c80d0985" d="M 10000 9935.50039100647 L 10081 9935.50039100647 C 10121 9935.50039100647 10121 10245.5 10186 10245.5 L 10376 10245.5" stroke="#FA5465" fill="none" stroke-width="3"></path><path part="right" sub="true" id="line_d82225cb127e" d="M 10000 9935.50039100647 L 10081 9935.50039100647 C 10121 9935.50039100647 10121 10306.5 10186 10306.5 L 10407 10306.5" stroke="#FD5155" fill="none" stroke-width="3"></path><path part="right" sub="true" id="line_ee786dceda10" d="M 10000 9935.50039100647 L 10081 9935.50039100647 C 10121 9935.50039100647 10121 10368.5 10186 10368.5 L 10374 10368.5" stroke="#DD489D" fill="none" stroke-width="3"></path></g><g class="svg-connection-con" transform="translate(0.5,0.5)"></g><g class="svg-freesums-con" transform="translate(0.5,0.5)"></g></g><g id="ee786dceda10"><rect x="302" y="889" rx="1px" ry="1px" width="188" height="30" style="fill: transparent; stroke:none;"></rect><g><text text-anchor="start" align="top" anchor="start" font-family="微软雅黑" font-size="16px" font-weight="normal" fill="rgb(13, 11, 34)"><tspan x="316" y="909.8749938964844"><tspan>权限管理功能相关问题</tspan></tspan></text></g></g><g id="d82225cb127e"><rect x="302" y="827" rx="1px" ry="1px" width="221" height="30" style="fill: transparent; stroke:none;"></rect><g><text text-anchor="start" align="top" anchor="start" font-family="微软雅黑" font-size="16px" font-weight="normal" fill="rgb(13, 11, 34)"><tspan x="316" y="847.8749938964844"><tspan>Elasticsearch版本升级问题</tspan></tspan></text></g></g><g id="fd99c80d0985"><rect x="302" y="766" rx="1px" ry="1px" width="190" height="30" style="fill: transparent; stroke:none;"></rect><g><text text-anchor="start" align="top" anchor="start" font-family="微软雅黑" font-size="16px" font-weight="normal" fill="rgb(13, 11, 34)"><tspan x="316" y="786.8749938964844"><tspan>Swagger版本升级问题</tspan></tspan></text></g></g><g id="a210d91cbb75"><rect x="302" y="705" rx="1px" ry="1px" width="204" height="30" style="fill: transparent; stroke:none;"></rect><g><text text-anchor="start" align="top" anchor="start" font-family="微软雅黑" font-size="16px" font-weight="normal" fill="rgb(13, 11, 34)"><tspan x="316" y="725.8749938964844"><tspan>商品搜索功能设计与实现</tspan></tspan></text></g></g><g id="6f4ac59e044f"><rect x="302" y="643" rx="1px" ry="1px" width="211" height="30" style="fill: transparent; stroke:none;"></rect><g><text text-anchor="start" align="top" anchor="start" font-family="微软雅黑" font-size="16px" font-weight="normal" fill="rgb(13, 11, 34)"><tspan x="316" y="663.8749938964844"><tspan>Redis+AOP优化权限管理</tspan></tspan></text></g></g><g id="bf0876f39577"><rect x="302" y="582" rx="1px" ry="1px" width="215" height="30" style="fill: transparent; stroke:none;"></rect><g><text text-anchor="start" align="top" anchor="start" font-family="微软雅黑" font-size="16px" font-weight="normal" fill="rgb(13, 11, 34)"><tspan x="316" y="602.8749938964844"><tspan>Spring Boot参数校验处</tspan></tspan><tspan x="316" y="624.8749938964844"><tspan>理</tspan></tspan></text></g></g><g id="a857197f7916"><rect x="302" y="520.9999923706055" rx="1px" ry="1px" width="156" height="30" style="fill: transparent; stroke:none;"></rect><g><text text-anchor="start" align="top" anchor="start" font-family="微软雅黑" font-size="16px" font-weight="normal" fill="rgb(13, 11, 34)"><tspan x="316" y="541.8749938964844"><tspan>权限管理前端实现</tspan></tspan></text></g></g><g id="5e13a48aca49"><rect x="302" y="458.99999618530273" rx="1px" ry="1px" width="156" height="30" style="fill: transparent; stroke:none;"></rect><g><text text-anchor="start" align="top" anchor="start" font-family="微软雅黑" font-size="16px" font-weight="normal" fill="rgb(13, 11, 34)"><tspan x="316" y="479.8749938964844"><tspan>权限管理后端实现</tspan></tspan></text></g></g><g id="819d9558c4f1"><rect x="302" y="397.9999942779541" rx="1px" ry="1px" width="203" height="30" style="fill: transparent; stroke:none;"></rect><g><text text-anchor="start" align="top" anchor="start" font-family="微软雅黑" font-size="16px" font-weight="normal" fill="rgb(13, 11, 34)"><tspan x="316" y="418.8749938964844"><tspan>整合MinIO实现文件上传</tspan></tspan></text></g></g><g id="5fe394f14550"><rect x="302" y="336.99999237060547" rx="1px" ry="1px" width="315" height="30" style="fill: transparent; stroke:none;"></rect><g><text text-anchor="start" align="top" anchor="start" font-family="微软雅黑" font-size="16px" font-weight="normal" fill="rgb(13, 11, 34)"><tspan x="316" y="357.8749938964844"><tspan>整合Spring Security+JWT实现登录认证</tspan></tspan></text></g></g><g id="00b664e3f3fe"><rect x="302" y="274.99998474121094" rx="1px" ry="1px" width="161" height="30" style="fill: transparent; stroke:none;"></rect><g><text text-anchor="start" align="top" anchor="start" font-family="微软雅黑" font-size="16px" font-weight="normal" fill="rgb(13, 11, 34)"><tspan x="316" y="295.8749938964844"><tspan>Stream API的使用</tspan></tspan></text></g></g><g id="6c8bbc70f25a"><rect x="302" y="213.99998474121094" rx="1px" ry="1px" width="172" height="30" style="fill: transparent; stroke:none;"></rect><g><text text-anchor="start" align="top" anchor="start" font-family="微软雅黑" font-size="16px" font-weight="normal" fill="rgb(13, 11, 34)"><tspan x="316" y="234.87499389648437"><tspan>前后端分离跨域问题</tspan></tspan></text></g></g><g id="20d0bf652618"><rect x="302" y="153" rx="1px" ry="1px" width="183" height="30" style="fill: transparent; stroke:none;"></rect><g><text text-anchor="start" align="top" anchor="start" font-family="微软雅黑" font-size="16px" font-weight="normal" fill="rgb(13, 11, 34)"><tspan x="316" y="173.87499389648437"><tspan>整合ELK实现日志收</tspan></tspan><tspan x="316" y="195.87499389648437"><tspan>集</tspan></tspan></text></g></g><g id="553a59dbcbb6"><rect x="302" y="91" rx="1px" ry="1px" width="222" height="30" style="fill: transparent; stroke:none;"></rect><g><text text-anchor="start" align="top" anchor="start" font-family="微软雅黑" font-size="16px" font-weight="normal" fill="rgb(13, 11, 34)"><tspan x="316" y="111.87499389648437"><tspan>使用AOP记录接口访问日志</tspan></tspan></text></g></g><g id="ec317d087f0a"><rect x="302" y="30" rx="1px" ry="1px" width="234" height="30" style="fill: transparent; stroke:none;"></rect><g><text text-anchor="start" align="top" anchor="start" font-family="微软雅黑" font-size="16px" font-weight="normal" fill="rgb(13, 11, 34)"><tspan x="316" y="50.874993896484376"><tspan>MyBatis Generator使用问题</tspan></tspan></text></g></g><g transform="translate(302, 889)" id="sdjakdjak0"><g id="subline_ee786dceda10" transform="translate(0.5,-0.5)"></g><g transform="translate(0.5,0)"></g><g class="svg-summary-con" transform="translate(0.5,0.5)"></g></g><g transform="translate(302, 827)" id="sdjakdjak1"><g id="subline_d82225cb127e" transform="translate(0.5,-0.5)"></g><g transform="translate(0.5,0)"></g><g class="svg-summary-con" transform="translate(0.5,0.5)"></g></g><g transform="translate(302, 766)" id="sdjakdjak2"><g id="subline_fd99c80d0985" transform="translate(0.5,-0.5)"></g><g transform="translate(0.5,0)"></g><g class="svg-summary-con" transform="translate(0.5,0.5)"></g></g><g transform="translate(302, 705)" id="sdjakdjak3"><g id="subline_a210d91cbb75" transform="translate(0.5,-0.5)"></g><g transform="translate(0.5,0)"></g><g class="svg-summary-con" transform="translate(0.5,0.5)"></g></g><g transform="translate(302, 643)" id="sdjakdjak4"><g id="subline_6f4ac59e044f" transform="translate(0.5,-0.5)"></g><g transform="translate(0.5,0)"></g><g class="svg-summary-con" transform="translate(0.5,0.5)"></g></g><g transform="translate(302, 582)" id="sdjakdjak5"><g id="subline_bf0876f39577" transform="translate(0.5,-0.5)"></g><g transform="translate(0.5,0)"></g><g class="svg-summary-con" transform="translate(0.5,0.5)"></g></g><g transform="translate(302, 520.9999923706055)" id="sdjakdjak6"><g id="subline_a857197f7916" transform="translate(0.5,-0.5)"></g><g transform="translate(0.5,0)"></g><g class="svg-summary-con" transform="translate(0.5,0.5)"></g></g><g transform="translate(302, 458.99999618530273)" id="sdjakdjak7"><g id="subline_5e13a48aca49" transform="translate(0.5,-0.5)"></g><g transform="translate(0.5,0)"></g><g class="svg-summary-con" transform="translate(0.5,0.5)"></g></g><g transform="translate(302, 397.9999942779541)" id="sdjakdjak8"><g id="subline_819d9558c4f1" transform="translate(0.5,-0.5)"></g><g transform="translate(0.5,0)"></g><g class="svg-summary-con" transform="translate(0.5,0.5)"></g></g><g transform="translate(302, 336.99999237060547)" id="sdjakdjak9"><g id="subline_5fe394f14550" transform="translate(0.5,-0.5)"></g><g transform="translate(0.5,0)"></g><g class="svg-summary-con" transform="translate(0.5,0.5)"></g></g><g transform="translate(302, 274.99998474121094)" id="sdjakdjak10"><g id="subline_00b664e3f3fe" transform="translate(0.5,-0.5)"></g><g transform="translate(0.5,0)"></g><g class="svg-summary-con" transform="translate(0.5,0.5)"></g></g><g transform="translate(302, 213.99998474121094)" id="sdjakdjak11"><g id="subline_6c8bbc70f25a" transform="translate(0.5,-0.5)"></g><g transform="translate(0.5,0)"></g><g class="svg-summary-con" transform="translate(0.5,0.5)"></g></g><g transform="translate(302, 153)" id="sdjakdjak12"><g id="subline_20d0bf652618" transform="translate(0.5,-0.5)"></g><g transform="translate(0.5,0)"></g><g class="svg-summary-con" transform="translate(0.5,0.5)"></g></g><g transform="translate(302, 91)" id="sdjakdjak13"><g id="subline_553a59dbcbb6" transform="translate(0.5,-0.5)"></g><g transform="translate(0.5,0)"></g><g class="svg-summary-con" transform="translate(0.5,0.5)"></g></g><g transform="translate(302, 30)" id="sdjakdjak14"><g id="subline_ec317d087f0a" transform="translate(0.5,-0.5)"></g><g transform="translate(0.5,0)"></g><g class="svg-summary-con" transform="translate(0.5,0.5)"></g></g><g transform="translate(30, 452.9999942779541)" id="sdjakdjak15"><g id="subline_root" transform="translate(0.5,-0.5)"></g><g transform="translate(0.5,0)"></g><g class="svg-summary-con" transform="translate(0.5,0.5)"></g></g><g id="root"><rect x="30" y="452.9999942779541" rx="7px" ry="7px" width="172" height="68" style="fill: #ffffff; stroke:none;"></rect><g><text text-anchor="start" align="top" anchor="start" font-family="微软雅黑" font-size="24px" font-weight="normal" fill="rgb(42, 46, 54)"><tspan x="68" y="494.7249931335449"><tspan>技术要点</tspan></tspan></text></g></g></svg>
