<?xml version="1.0" standalone="no"?><?xml-stylesheet type="text/css" href="https://www.processon.com/themes/default/mind/icons/icons.css" ?><!DOCTYPE svg PUBLIC "-//W3C//DTD SVG 1.1//EN" "http://www.w3.org/Graphics/SVG/1.1/DTD/svg11.dtd">
<svg xmlns="http://www.w3.org/2000/svg" version="1.1" xlink="http://www.w3.org/1999/xlink" id="mind-svg-con" width="711px" height="582.0000152587891px" style="position: absolute; left: 0px; top: 0px; width: 711px; height: 582px; background: rgb(247, 247, 247); z-index: 999;"><defs></defs><g id="svgbackgroundid"><defs></defs><rect x="0" y="0" width="711" height="582.0000152587891" fill="#F7F7F7"></rect></g><g transform="translate(-9860, -9632.000381469727)" id="sdjakdjak10"><defs></defs><g class="svg-topic-con" transform="translate(0.5,0.5)"><path part="right" sub="true" id="line_cff395f44a8f" d="M 10000 9935.50039100647 L 10105 9935.50039100647 C 10145 9935.50039100647 10145 9692.5 10210 9692.5 L 10440 9692.5" stroke="#0FBAB0" fill="none" stroke-width="3"></path><path part="right" sub="true" id="line_81e2803648a4" d="M 10000 9935.50039100647 L 10105 9935.50039100647 C 10145 9935.50039100647 10145 9753.5 10210 9753.5 L 10458 9753.5" stroke="#0FBAB0" fill="none" stroke-width="3"></path><path part="right" sub="true" id="line_b03491fc65e4" d="M 10000 9935.50039100647 L 10105 9935.50039100647 C 10145 9935.50039100647 10145 9814.5 10210 9814.5 L 10376 9814.5" stroke="#7549C5" fill="none" stroke-width="3"></path><path part="right" sub="true" id="line_75f4d17c8cae" d="M 10000 9935.50039100647 L 10105 9935.50039100647 C 10145 9935.50039100647 10145 9876.5 10210 9876.5 L 10541 9876.5" stroke="#3D5EC2" fill="none" stroke-width="3"></path><path part="right" sub="true" id="line_256ee13ec8e3" d="M 10000 9935.50039100647 L 10105 9935.50039100647 C 10145 9935.50039100647 10145 9937.5 10210 9937.5 L 10455 9937.5" stroke="#02ACF4" fill="none" stroke-width="3"></path><path part="right" sub="true" id="line_06c94b58f011" d="M 10000 9935.50039100647 L 10105 9935.50039100647 C 10145 9935.50039100647 10145 9998.5 10210 9998.5 L 10463 9998.5" stroke="#0F80C4" fill="none" stroke-width="3"></path><path part="right" sub="true" id="line_e69ff39f916c" d="M 10000 9935.50039100647 L 10105 9935.50039100647 C 10145 9935.50039100647 10145 10060.5 10210 10060.5 L 10444 10060.5" stroke="#80BA4C" fill="none" stroke-width="3"></path><path part="right" sub="true" id="line_beceae161cbf" d="M 10000 9935.50039100647 L 10105 9935.50039100647 C 10145 9935.50039100647 10145 10121.5 10210 10121.5 L 10444 10121.5" stroke="#FCB52A" fill="none" stroke-width="3"></path><path part="right" sub="true" id="line_21fb4c908b5e" d="M 10000 9935.50039100647 L 10105 9935.50039100647 C 10145 9935.50039100647 10145 10182.5 10210 10182.5 L 10397 10182.5" stroke="#BE49C4" fill="none" stroke-width="3"></path></g><g class="svg-connection-con" transform="translate(0.5,0.5)"></g><g class="svg-freesums-con" transform="translate(0.5,0.5)"></g></g><g id="21fb4c908b5e"><rect x="350" y="520.0000152587891" rx="1px" ry="1px" width="187" height="30" style="fill: transparent; stroke:none;"></rect><g><text text-anchor="start" align="top" anchor="start" font-family="微软雅黑" font-size="16px" font-weight="normal" fill="rgb(13, 11, 34)"><tspan x="364" y="540.8750091552735"><tspan>整合OSS实现文件上传</tspan></tspan></text></g></g><g id="beceae161cbf"><rect x="350" y="459.00001525878906" rx="1px" ry="1px" width="234" height="30" style="fill: transparent; stroke:none;"></rect><g><text text-anchor="start" align="top" anchor="start" font-family="微软雅黑" font-size="16px" font-weight="normal" fill="rgb(13, 11, 34)"><tspan x="364" y="479.87500915527346"><tspan>整合RabbitMQ实现延迟消息</tspan></tspan></text></g></g><g id="e69ff39f916c"><rect x="350" y="398.00001525878906" rx="1px" ry="1px" width="234" height="30" style="fill: transparent; stroke:none;"></rect><g><text text-anchor="start" align="top" anchor="start" font-family="微软雅黑" font-size="16px" font-weight="normal" fill="rgb(13, 11, 34)"><tspan x="364" y="418.87500915527346"><tspan>整合MongoDB实现文档操作</tspan></tspan></text></g></g><g id="06c94b58f011"><rect x="350" y="336.00000762939453" rx="1px" ry="1px" width="253" height="30" style="fill: transparent; stroke:none;"></rect><g><text text-anchor="start" align="top" anchor="start" font-family="微软雅黑" font-size="16px" font-weight="normal" fill="rgb(13, 11, 34)"><tspan x="364" y="356.87500915527346"><tspan>整合Elasticsearch实现商品搜索</tspan></tspan></text></g></g><g id="256ee13ec8e3"><rect x="350" y="275.0000114440918" rx="1px" ry="1px" width="245" height="30" style="fill: transparent; stroke:none;"></rect><g><text text-anchor="start" align="top" anchor="start" font-family="微软雅黑" font-size="16px" font-weight="normal" fill="rgb(13, 11, 34)"><tspan x="364" y="295.87500915527346"><tspan>整合Spring Task实现定时任务</tspan></tspan></text></g></g><g id="75f4d17c8cae"><rect x="350" y="214.00000953674316" rx="1px" ry="1px" width="331" height="30" style="fill: transparent; stroke:none;"></rect><g><text text-anchor="start" align="top" anchor="start" font-family="微软雅黑" font-size="16px" font-weight="normal" fill="rgb(13, 11, 34)"><tspan x="364" y="234.87500915527343"><tspan>整合Spring Security+JWT实现认证和授权</tspan></tspan></text></g></g><g id="b03491fc65e4"><rect x="350" y="152.00000762939453" rx="1px" ry="1px" width="166" height="30" style="fill: transparent; stroke:none;"></rect><g><text text-anchor="start" align="top" anchor="start" font-family="微软雅黑" font-size="16px" font-weight="normal" fill="rgb(13, 11, 34)"><tspan x="364" y="172.87500915527343"><tspan>整合Redis实现缓存</tspan></tspan></text></g></g><g id="81e2803648a4"><rect x="350" y="91" rx="1px" ry="1px" width="248" height="30" style="fill: transparent; stroke:none;"></rect><g><text text-anchor="start" align="top" anchor="start" font-family="微软雅黑" font-size="16px" font-weight="normal" fill="rgb(13, 11, 34)"><tspan x="364" y="111.87500915527343"><tspan>整合Swagger实现API接口文档</tspan></tspan></text></g></g><g id="cff395f44a8f"><rect x="350" y="30" rx="1px" ry="1px" width="230" height="30" style="fill: transparent; stroke:none;"></rect><g><text text-anchor="start" align="top" anchor="start" font-family="微软雅黑" font-size="16px" font-weight="normal" fill="rgb(13, 11, 34)"><tspan x="364" y="50.87500915527344"><tspan>整合MyBatis实现CRUD操作</tspan></tspan></text></g></g><g transform="translate(350, 520.0000152587891)" id="sdjakdjak0"><g id="subline_21fb4c908b5e" transform="translate(0.5,-0.5)"></g><g transform="translate(0.5,0)"></g><g class="svg-summary-con" transform="translate(0.5,0.5)"></g></g><g transform="translate(350, 459.00001525878906)" id="sdjakdjak1"><g id="subline_beceae161cbf" transform="translate(0.5,-0.5)"></g><g transform="translate(0.5,0)"></g><g class="svg-summary-con" transform="translate(0.5,0.5)"></g></g><g transform="translate(350, 398.00001525878906)" id="sdjakdjak2"><g id="subline_e69ff39f916c" transform="translate(0.5,-0.5)"></g><g transform="translate(0.5,0)"></g><g class="svg-summary-con" transform="translate(0.5,0.5)"></g></g><g transform="translate(350, 336.00000762939453)" id="sdjakdjak3"><g id="subline_06c94b58f011" transform="translate(0.5,-0.5)"></g><g transform="translate(0.5,0)"></g><g class="svg-summary-con" transform="translate(0.5,0.5)"></g></g><g transform="translate(350, 275.0000114440918)" id="sdjakdjak4"><g id="subline_256ee13ec8e3" transform="translate(0.5,-0.5)"></g><g transform="translate(0.5,0)"></g><g class="svg-summary-con" transform="translate(0.5,0.5)"></g></g><g transform="translate(350, 214.00000953674316)" id="sdjakdjak5"><g id="subline_75f4d17c8cae" transform="translate(0.5,-0.5)"></g><g transform="translate(0.5,0)"></g><g class="svg-summary-con" transform="translate(0.5,0.5)"></g></g><g transform="translate(350, 152.00000762939453)" id="sdjakdjak6"><g id="subline_b03491fc65e4" transform="translate(0.5,-0.5)"></g><g transform="translate(0.5,0)"></g><g class="svg-summary-con" transform="translate(0.5,0.5)"></g></g><g transform="translate(350, 91)" id="sdjakdjak7"><g id="subline_81e2803648a4" transform="translate(0.5,-0.5)"></g><g transform="translate(0.5,0)"></g><g class="svg-summary-con" transform="translate(0.5,0.5)"></g></g><g transform="translate(350, 30)" id="sdjakdjak8"><g id="subline_cff395f44a8f" transform="translate(0.5,-0.5)"></g><g transform="translate(0.5,0)"></g><g class="svg-summary-con" transform="translate(0.5,0.5)"></g></g><g transform="translate(30, 270.00000953674316)" id="sdjakdjak9"><g id="subline_root" transform="translate(0.5,-0.5)"></g><g transform="translate(0.5,0)"></g><g class="svg-summary-con" transform="translate(0.5,0.5)"></g></g><g id="root"><rect x="30" y="270.00000953674316" rx="7px" ry="7px" width="220" height="68" style="fill: #ffffff; stroke:none;"></rect><g><text text-anchor="start" align="top" anchor="start" font-family="微软雅黑" font-size="24px" font-weight="normal" fill="rgb(42, 46, 54)"><tspan x="68" y="311.72500839233396"><tspan>搭建项目骨架</tspan></tspan></text></g></g></svg>
