<?xml version="1.0" standalone="no"?><?xml-stylesheet type="text/css" href="https://www.processon.com/themes/default/mind/icons/icons.css" ?><!DOCTYPE svg PUBLIC "-//W3C//DTD SVG 1.1//EN" "http://www.w3.org/Graphics/SVG/1.1/DTD/svg11.dtd">
<svg xmlns="http://www.w3.org/2000/svg" version="1.1" xlink="http://www.w3.org/1999/xlink" id="mind-svg-con" width="658px" height="1099px" style="position: absolute; left: 0px; top: 0px; width: 658px; height: 1099px; background: rgb(247, 247, 247); z-index: 999;"><defs></defs><g id="svgbackgroundid"><defs></defs><rect x="0" y="0" width="658" height="1099" fill="#F7F7F7"></rect></g><g transform="translate(-9872, -9373.000396728516)" id="sdjakdjak5"><defs></defs><g class="svg-topic-con" transform="translate(0.5,0.5)"><path part="right" sub="true" id="line_f6fa5b0908e3" d="M 10000 9935.50039100647 L 10093 9935.50039100647 C 10133 9935.50039100647 10133 9616.5 10198 9616.5 L 10290 9616.5" stroke="#FD5155" fill="none" stroke-width="3"></path><path part="right" sub="true" id="line_e40a39e36151" d="M 10000 9935.50039100647 L 10093 9935.50039100647 C 10133 9935.50039100647 10133 9975.5 10198 9975.5 L 10290 9975.5" stroke="#FA5465" fill="none" stroke-width="3"></path><path part="right" sub="true" id="line_6b6eff98ebaf" d="M 10000 9935.50039100647 L 10093 9935.50039100647 C 10133 9935.50039100647 10133 10220 10198 10220 L 10290 10220" stroke="#7549C5" fill="none" stroke-width="3"></path><path part="right" sub="true" id="line_364340e7a906" d="M 10000 9935.50039100647 L 10093 9935.50039100647 C 10133 9935.50039100647 10133 10395 10198 10395 L 10258 10395" stroke="#FCB52A" fill="none" stroke-width="3"></path></g><g class="svg-connection-con" transform="translate(0.5,0.5)"></g><g class="svg-freesums-con" transform="translate(0.5,0.5)"></g></g><g id="364340e7a906"><rect x="326" y="992.5" rx="1px" ry="1px" width="60" height="29" style="fill: transparent; stroke:none;"></rect><g><text text-anchor="start" align="top" anchor="start" font-family="微软雅黑" font-size="16px" font-weight="normal" fill="rgb(13, 11, 34)"><tspan x="340" y="1013.3749938964844"><tspan>其他</tspan></tspan></text></g></g><g id="162ed43c3104"><rect x="462" y="947" rx="1px" ry="1px" width="82" height="29" style="fill: transparent; stroke:none;"></rect><g><text text-anchor="start" align="top" anchor="start" font-family="微软雅黑" font-size="13px" font-weight="400" fill="rgb(13, 11, 34)"><tspan x="471" y="967.0875061035156"><tspan>RabbitMQ</tspan></tspan></text></g></g><g id="a3c1c55c959a"><rect x="462" y="992.8875122070312" rx="1px" ry="1px" width="74" height="29" style="fill: transparent; stroke:none;"></rect><g><text text-anchor="start" align="top" anchor="start" font-family="微软雅黑" font-size="13px" font-weight="400" fill="rgb(13, 11, 34)"><tspan x="471" y="1012.9749877929687"><tspan>Logstash</tspan></tspan></text></g></g><g id="5261d3d507ba"><rect x="462" y="1038.7749938964844" rx="1px" ry="1px" width="61" height="29" style="fill: transparent; stroke:none;"></rect><g><text text-anchor="start" align="top" anchor="start" font-family="微软雅黑" font-size="13px" font-weight="400" fill="rgb(13, 11, 34)"><tspan x="471" y="1058.862530517578"><tspan>Kibana</tspan></tspan></text></g></g><g id="6b6eff98ebaf"><rect x="326" y="816.4375" rx="1px" ry="1px" width="92" height="29" style="fill: transparent; stroke:none;"></rect><g><text text-anchor="start" align="top" anchor="start" font-family="微软雅黑" font-size="16px" font-weight="normal" fill="rgb(13, 11, 34)"><tspan x="340" y="837.3124938964844"><tspan>运维部署</tspan></tspan></text></g></g><g id="12d9b463db6d"><rect x="494" y="748" rx="1px" ry="1px" width="50" height="29" style="fill: transparent; stroke:none;"></rect><g><text text-anchor="start" align="top" anchor="start" font-family="微软雅黑" font-size="13px" font-weight="400" fill="rgb(13, 11, 34)"><tspan x="503" y="768.0874908447265"><tspan>Linux</tspan></tspan></text></g></g><g id="49aa790b7138"><rect x="494" y="793.8875122070312" rx="1px" ry="1px" width="62" height="29" style="fill: transparent; stroke:none;"></rect><g><text text-anchor="start" align="top" anchor="start" font-family="微软雅黑" font-size="13px" font-weight="400" fill="rgb(13, 11, 34)"><tspan x="503" y="813.9749877929687"><tspan>Docker</tspan></tspan></text></g></g><g id="3526922a83d3"><rect x="494" y="839.7749938964844" rx="1px" ry="1px" width="55" height="29" style="fill: transparent; stroke:none;"></rect><g><text text-anchor="start" align="top" anchor="start" font-family="微软雅黑" font-size="13px" font-weight="400" fill="rgb(13, 11, 34)"><tspan x="503" y="859.8625"><tspan>Nginx</tspan></tspan></text></g></g><g id="4ca72a5e16ec"><rect x="494" y="885.6625061035156" rx="1px" ry="1px" width="63" height="29" style="fill: transparent; stroke:none;"></rect><g><text text-anchor="start" align="top" anchor="start" font-family="微软雅黑" font-size="13px" font-weight="400" fill="rgb(13, 11, 34)"><tspan x="503" y="905.7500122070312"><tspan>Jenkins</tspan></tspan></text></g></g><g id="e40a39e36151"><rect x="326" y="572.3249969482422" rx="1px" ry="1px" width="92" height="30" style="fill: transparent; stroke:none;"></rect><g><text text-anchor="start" align="top" anchor="start" font-family="微软雅黑" font-size="16px" font-weight="normal" fill="rgb(13, 11, 34)"><tspan x="340" y="593.1999984741211"><tspan>数据存储</tspan></tspan></text></g></g><g id="03fc9191aa0e"><rect x="494" y="457.99999237060547" rx="1px" ry="1px" width="62" height="29" style="fill: transparent; stroke:none;"></rect><g><text text-anchor="start" align="top" anchor="start" font-family="微软雅黑" font-size="13px" font-weight="400" fill="rgb(13, 11, 34)"><tspan x="503" y="478.08749465942384"><tspan>MySQL</tspan></tspan></text></g></g><g id="7f398dd35a20"><rect x="494" y="503.88749384880066" rx="1px" ry="1px" width="52" height="29" style="fill: transparent; stroke:none;"></rect><g><text text-anchor="start" align="top" anchor="start" font-family="微软雅黑" font-size="13px" font-weight="400" fill="rgb(13, 11, 34)"><tspan x="503" y="523.9749944686889"><tspan>Redis</tspan></tspan></text></g></g><g id="8ab32a1b242f"><rect x="494" y="549.7749938964844" rx="1px" ry="1px" width="97" height="29" style="fill: transparent; stroke:none;"></rect><g><text text-anchor="start" align="top" anchor="start" font-family="微软雅黑" font-size="13px" font-weight="400" fill="rgb(13, 11, 34)"><tspan x="503" y="569.8624961853027"><tspan>Elasticsearch</tspan></tspan></text></g></g><g id="bb8ec7a53bda"><rect x="494" y="595.6624984741211" rx="1px" ry="1px" width="82" height="29" style="fill: transparent; stroke:none;"></rect><g><text text-anchor="start" align="top" anchor="start" font-family="微软雅黑" font-size="13px" font-weight="400" fill="rgb(13, 11, 34)"><tspan x="503" y="615.7499969482421"><tspan>MongoDB</tspan></tspan></text></g></g><g id="b201c9489c81"><rect x="494" y="641.5500030517578" rx="1px" ry="1px" width="44" height="29" style="fill: transparent; stroke:none;"></rect><g><text text-anchor="start" align="top" anchor="start" font-family="微软雅黑" font-size="13px" font-weight="400" fill="rgb(13, 11, 34)"><tspan x="503" y="661.6374938964843"><tspan>OSS</tspan></tspan></text></g></g><g id="41d7985212c6"><rect x="494" y="687.4375" rx="1px" ry="1px" width="57" height="29" style="fill: transparent; stroke:none;"></rect><g><text text-anchor="start" align="top" anchor="start" font-family="微软雅黑" font-size="13px" font-weight="400" fill="rgb(13, 11, 34)"><tspan x="503" y="707.5249908447265"><tspan>MinIO</tspan></tspan></text></g></g><g id="f6fa5b0908e3"><rect x="326" y="213.1624755859375" rx="1px" ry="1px" width="92" height="30" style="fill: transparent; stroke:none;"></rect><g><text text-anchor="start" align="top" anchor="start" font-family="微软雅黑" font-size="16px" font-weight="normal" fill="rgb(13, 11, 34)"><tspan x="340" y="234.0375"><tspan>项目框架</tspan></tspan></text></g></g><g id="2bd29ab68d85"><rect x="494" y="30" rx="1px" ry="1px" width="92" height="29" style="fill: transparent; stroke:none;"></rect><g><text text-anchor="start" align="top" anchor="start" font-family="微软雅黑" font-size="13px" font-weight="400" fill="rgb(13, 11, 34)"><tspan x="503" y="50.0874755859375"><tspan>Spring Boot</tspan></tspan></text></g></g><g id="9c708fe5be38"><rect x="494" y="75.88748168945312" rx="1px" ry="1px" width="112" height="29" style="fill: transparent; stroke:none;"></rect><g><text text-anchor="start" align="top" anchor="start" font-family="微软雅黑" font-size="13px" font-weight="400" fill="rgb(13, 11, 34)"><tspan x="503" y="95.97498779296875"><tspan>Spring Security</tspan></tspan></text></g></g><g id="57063cec95e4"><rect x="494" y="121.77499389648438" rx="1px" ry="1px" width="67" height="29" style="fill: transparent; stroke:none;"></rect><g><text text-anchor="start" align="top" anchor="start" font-family="微软雅黑" font-size="13px" font-weight="400" fill="rgb(13, 11, 34)"><tspan x="503" y="141.8625"><tspan>MyBatis</tspan></tspan></text></g></g><g id="5feec0809fa9"><rect x="494" y="167.6624755859375" rx="1px" ry="1px" width="134" height="29" style="fill: transparent; stroke:none;"></rect><g><text text-anchor="start" align="top" anchor="start" font-family="微软雅黑" font-size="13px" font-weight="400" fill="rgb(13, 11, 34)"><tspan x="503" y="187.74998168945314"><tspan>MyBatis Generator</tspan></tspan></text></g></g><g id="1d3538e0c71e"><rect x="494" y="213.54998779296875" rx="1px" ry="1px" width="90" height="29" style="fill: transparent; stroke:none;"></rect><g><text text-anchor="start" align="top" anchor="start" font-family="微软雅黑" font-size="13px" font-weight="400" fill="rgb(13, 11, 34)"><tspan x="503" y="233.6374938964844"><tspan>PageHelper</tspan></tspan></text></g></g><g id="0194d979384e"><rect x="494" y="259.43748474121094" rx="1px" ry="1px" width="72" height="29" style="fill: transparent; stroke:none;"></rect><g><text text-anchor="start" align="top" anchor="start" font-family="微软雅黑" font-size="13px" font-weight="400" fill="rgb(13, 11, 34)"><tspan x="503" y="279.5249908447266"><tspan>Swagger</tspan></tspan></text></g></g><g id="a7b26336eda8"><rect x="494" y="305.3249969482422" rx="1px" ry="1px" width="53" height="29" style="fill: transparent; stroke:none;"></rect><g><text text-anchor="start" align="top" anchor="start" font-family="微软雅黑" font-size="13px" font-weight="400" fill="rgb(13, 11, 34)"><tspan x="503" y="325.41248779296876"><tspan>Druid</tspan></tspan></text></g></g><g id="f37fc224c32c"><rect x="494" y="351.2124938964844" rx="1px" ry="1px" width="69" height="29" style="fill: transparent; stroke:none;"></rect><g><text text-anchor="start" align="top" anchor="start" font-family="微软雅黑" font-size="13px" font-weight="400" fill="rgb(13, 11, 34)"><tspan x="503" y="371.29998474121095"><tspan>Lombok</tspan></tspan></text></g></g><g id="8c3fa956c0d0"><rect x="494" y="397.09999084472656" rx="1px" ry="1px" width="61" height="29" style="fill: transparent; stroke:none;"></rect><g><text text-anchor="start" align="top" anchor="start" font-family="微软雅黑" font-size="13px" font-weight="400" fill="rgb(13, 11, 34)"><tspan x="503" y="417.18748931884767"><tspan>Hutool</tspan></tspan></text></g></g><g transform="translate(326, 947)" id="sdjakdjak0"><g id="subline_364340e7a906" transform="translate(0.5,-0.5)"><path id="line_162ed43c3104" d="M 60 76 L 60 76 M 60 76 C 106 76 98 30 136 30 L 218 30" p="364340e7a906" stroke="#FCB52A" fill="none" stroke-linecap="square" stroke-width="3"></path><path id="line_a3c1c55c959a" d="M 60 76 L 60 76 M 60 76 C 106 76 98 76 136 76 L 210 76" p="364340e7a906" stroke="#FCB52A" fill="none" stroke-linecap="square" stroke-width="3"></path><path id="line_5261d3d507ba" d="M 60 76 L 60 76 M 60 76 C 106 76 98 122 136 122 L 197 122" p="364340e7a906" stroke="#FCB52A" fill="none" stroke-linecap="square" stroke-width="3"></path></g><g transform="translate(0.5,0)"></g><g class="svg-summary-con" transform="translate(0.5,0.5)"></g></g><g transform="translate(326, 748)" id="sdjakdjak1"><g id="subline_6b6eff98ebaf" transform="translate(0.5,-0.5)"><path id="line_12d9b463db6d" d="M 92 100 L 92 100 M 92 100 C 138 100 130 30 168 30 L 218 30" p="6b6eff98ebaf" stroke="#7549C5" fill="none" stroke-linecap="square" stroke-width="3"></path><path id="line_49aa790b7138" d="M 92 100 L 92 100 M 92 100 C 138 100 130 76 168 76 L 230 76" p="6b6eff98ebaf" stroke="#7549C5" fill="none" stroke-linecap="square" stroke-width="3"></path><path id="line_3526922a83d3" d="M 92 100 L 92 100 M 92 100 C 138 100 130 122 168 122 L 223 122" p="6b6eff98ebaf" stroke="#7549C5" fill="none" stroke-linecap="square" stroke-width="3"></path><path id="line_4ca72a5e16ec" d="M 92 100 L 92 100 M 92 100 C 138 100 130 168 168 168 L 231 168" p="6b6eff98ebaf" stroke="#7549C5" fill="none" stroke-linecap="square" stroke-width="3"></path></g><g transform="translate(0.5,0)"></g><g class="svg-summary-con" transform="translate(0.5,0.5)"></g></g><g transform="translate(326, 457.99999237060547)" id="sdjakdjak2"><g id="subline_e40a39e36151" transform="translate(0.5,-0.5)"><path id="line_03fc9191aa0e" d="M 92 146 L 92 146 M 92 146 C 138 146 130 30 168 30 L 230 30" p="e40a39e36151" stroke="#FA5465" fill="none" stroke-linecap="square" stroke-width="3"></path><path id="line_7f398dd35a20" d="M 92 146 L 92 146 M 92 146 C 138 146 130 76 168 76 L 220 76" p="e40a39e36151" stroke="#FA5465" fill="none" stroke-linecap="square" stroke-width="3"></path><path id="line_8ab32a1b242f" d="M 92 146 L 92 146 M 92 146 C 138 146 130 122 168 122 L 265 122" p="e40a39e36151" stroke="#FA5465" fill="none" stroke-linecap="square" stroke-width="3"></path><path id="line_bb8ec7a53bda" d="M 92 146 L 92 146 M 92 146 C 138 146 130 168 168 168 L 250 168" p="e40a39e36151" stroke="#FA5465" fill="none" stroke-linecap="square" stroke-width="3"></path><path id="line_b201c9489c81" d="M 92 146 L 92 146 M 92 146 C 138 146 130 214 168 214 L 212 214" p="e40a39e36151" stroke="#FA5465" fill="none" stroke-linecap="square" stroke-width="3"></path><path id="line_41d7985212c6" d="M 92 146 L 92 146 M 92 146 C 138 146 130 259 168 259 L 225 259" p="e40a39e36151" stroke="#FA5465" fill="none" stroke-linecap="square" stroke-width="3"></path></g><g transform="translate(0.5,0)"></g><g class="svg-summary-con" transform="translate(0.5,0.5)"></g></g><g transform="translate(326, 30)" id="sdjakdjak3"><g id="subline_f6fa5b0908e3" transform="translate(0.5,-0.5)"><path id="line_2bd29ab68d85" d="M 92 215 L 92 215 M 92 215 C 138 215 130 30 168 30 L 260 30" p="f6fa5b0908e3" stroke="#FD5155" fill="none" stroke-linecap="square" stroke-width="3"></path><path id="line_9c708fe5be38" d="M 92 215 L 92 215 M 92 215 C 138 215 130 76 168 76 L 280 76" p="f6fa5b0908e3" stroke="#FD5155" fill="none" stroke-linecap="square" stroke-width="3"></path><path id="line_57063cec95e4" d="M 92 215 L 92 215 M 92 215 C 138 215 130 122 168 122 L 235 122" p="f6fa5b0908e3" stroke="#FD5155" fill="none" stroke-linecap="square" stroke-width="3"></path><path id="line_5feec0809fa9" d="M 92 215 L 92 215 M 92 215 C 138 215 130 168 168 168 L 302 168" p="f6fa5b0908e3" stroke="#FD5155" fill="none" stroke-linecap="square" stroke-width="3"></path><path id="line_1d3538e0c71e" d="M 92 215 L 92 215 M 92 215 C 138 215 130 214 168 214 L 258 214" p="f6fa5b0908e3" stroke="#FD5155" fill="none" stroke-linecap="square" stroke-width="3"></path><path id="line_0194d979384e" d="M 92 215 L 92 215 M 92 215 C 138 215 130 259 168 259 L 240 259" p="f6fa5b0908e3" stroke="#FD5155" fill="none" stroke-linecap="square" stroke-width="3"></path><path id="line_a7b26336eda8" d="M 92 215 L 92 215 M 92 215 C 138 215 130 305 168 305 L 221 305" p="f6fa5b0908e3" stroke="#FD5155" fill="none" stroke-linecap="square" stroke-width="3"></path><path id="line_f37fc224c32c" d="M 92 215 L 92 215 M 92 215 C 138 215 130 351 168 351 L 237 351" p="f6fa5b0908e3" stroke="#FD5155" fill="none" stroke-linecap="square" stroke-width="3"></path><path id="line_8c3fa956c0d0" d="M 92 215 L 92 215 M 92 215 C 138 215 130 397 168 397 L 229 397" p="f6fa5b0908e3" stroke="#FD5155" fill="none" stroke-linecap="square" stroke-width="3"></path></g><g transform="translate(0.5,0)"></g><g class="svg-summary-con" transform="translate(0.5,0.5)"></g></g><g transform="translate(30, 528.9999942779541)" id="sdjakdjak4"><g id="subline_root" transform="translate(0.5,-0.5)"></g><g transform="translate(0.5,0)"></g><g class="svg-summary-con" transform="translate(0.5,0.5)"></g></g><g id="root"><rect x="30" y="528.9999942779541" rx="7px" ry="7px" width="196" height="68" style="fill: #ffffff; stroke:none;"></rect><g><text text-anchor="start" align="top" anchor="start" font-family="微软雅黑" font-size="24px" font-weight="normal" fill="rgb(42, 46, 54)"><tspan x="68" y="570.7249931335449"><tspan>后端技术栈</tspan></tspan></text></g></g></svg>
