<?xml version="1.0" standalone="no"?><?xml-stylesheet type="text/css" href="https://www.processon.com/themes/default/mind/icons/icons.css" ?><!DOCTYPE svg PUBLIC "-//W3C//DTD SVG 1.1//EN" "http://www.w3.org/Graphics/SVG/1.1/DTD/svg11.dtd">
<svg xmlns="http://www.w3.org/2000/svg" version="1.1" xlink="http://www.w3.org/1999/xlink" id="mind-svg-con" width="542px" height="644.0000152587891px" style="position: absolute; left: 0px; top: 0px; width: 542px; height: 644px; background: rgb(247, 247, 247); z-index: 999;"><defs></defs><g id="svgbackgroundid"><defs></defs><rect x="0" y="0" width="542" height="644.0000152587891" fill="#F7F7F7"></rect></g><g transform="translate(-9872, -9602.000381469727)" id="sdjakdjak11"><defs></defs><g class="svg-topic-con" transform="translate(0.5,0.5)"><path part="right" sub="true" id="line_49ad50c6c8e8" d="M 10000 9935.50039100647 L 10093 9935.50039100647 C 10133 9935.50039100647 10133 9662.5 10198 9662.5 L 10253 9662.5" stroke="#FA5465" fill="none" stroke-width="3"></path><path part="right" sub="true" id="line_1510622ff6e6" d="M 10000 9935.50039100647 L 10093 9935.50039100647 C 10133 9935.50039100647 10133 9724.5 10198 9724.5 L 10261 9724.5" stroke="#FCB52A" fill="none" stroke-width="3"></path><path part="right" sub="true" id="line_dfa443f2d105" d="M 10000 9935.50039100647 L 10093 9935.50039100647 C 10133 9935.50039100647 10133 9785.5 10198 9785.5 L 10308 9785.5" stroke="#DD489D" fill="none" stroke-width="3"></path><path part="right" sub="true" id="line_b3ce742f7d6b" d="M 10000 9935.50039100647 L 10093 9935.50039100647 C 10133 9935.50039100647 10133 9846.5 10198 9846.5 L 10309 9846.5" stroke="#80BA4C" fill="none" stroke-width="3"></path><path part="right" sub="true" id="line_cc2cfdcbf378" d="M 10000 9935.50039100647 L 10093 9935.50039100647 C 10133 9935.50039100647 10133 9908.5 10198 9908.5 L 10384 9908.5" stroke="#7549C5" fill="none" stroke-width="3"></path><path part="right" sub="true" id="line_f1c13a63895e" d="M 10000 9935.50039100647 L 10093 9935.50039100647 C 10133 9935.50039100647 10133 9969.5 10198 9969.5 L 10265 9969.5" stroke="#FD5155" fill="none" stroke-width="3"></path><path part="right" sub="true" id="line_65507e971bf9" d="M 10000 9935.50039100647 L 10093 9935.50039100647 C 10133 9935.50039100647 10133 10030.5 10198 10030.5 L 10295 10030.5" stroke="#0F80C4" fill="none" stroke-width="3"></path><path part="right" sub="true" id="line_d3256a9aa186" d="M 10000 9935.50039100647 L 10093 9935.50039100647 C 10133 9935.50039100647 10133 10092.5 10198 10092.5 L 10328 10092.5" stroke="#BE49C4" fill="none" stroke-width="3"></path><path part="right" sub="true" id="line_967d70abdbe9" d="M 10000 9935.50039100647 L 10093 9935.50039100647 C 10133 9935.50039100647 10133 10153.5 10198 10153.5 L 10303 10153.5" stroke="#0FBAB0" fill="none" stroke-width="3"></path><path part="right" sub="true" id="line_f4ba486d4f4e" d="M 10000 9935.50039100647 L 10093 9935.50039100647 C 10133 9935.50039100647 10133 10214.5 10198 10214.5 L 10344 10214.5" stroke="#0D7C82" fill="none" stroke-width="3"></path></g><g class="svg-connection-con" transform="translate(0.5,0.5)"></g><g class="svg-freesums-con" transform="translate(0.5,0.5)"></g></g><g id="f4ba486d4f4e"><rect x="326" y="582.0000152587891" rx="1px" ry="1px" width="146" height="30" style="fill: transparent; stroke:none;"></rect><g><text text-anchor="start" align="top" anchor="start" font-family="微软雅黑" font-size="16px" font-weight="normal" fill="rgb(13, 11, 34)"><tspan x="340" y="602.8750091552735"><tspan>path-to-regexp</tspan></tspan></text></g></g><g id="967d70abdbe9"><rect x="326" y="521.0000152587891" rx="1px" ry="1px" width="105" height="30" style="fill: transparent; stroke:none;"></rect><g><text text-anchor="start" align="top" anchor="start" font-family="微软雅黑" font-size="16px" font-weight="normal" fill="rgb(13, 11, 34)"><tspan x="340" y="541.8750091552735"><tspan>nprogress</tspan></tspan></text></g></g><g id="d3256a9aa186"><rect x="326" y="460.00001525878906" rx="1px" ry="1px" width="130" height="30" style="fill: transparent; stroke:none;"></rect><g><text text-anchor="start" align="top" anchor="start" font-family="微软雅黑" font-size="16px" font-weight="normal" fill="rgb(13, 11, 34)"><tspan x="340" y="480.87500915527346"><tspan>normalize.css</tspan></tspan></text></g></g><g id="65507e971bf9"><rect x="326" y="398.00000762939453" rx="1px" ry="1px" width="97" height="30" style="fill: transparent; stroke:none;"></rect><g><text text-anchor="start" align="top" anchor="start" font-family="微软雅黑" font-size="16px" font-weight="normal" fill="rgb(13, 11, 34)"><tspan x="340" y="418.87500915527346"><tspan>js-cookie</tspan></tspan></text></g></g><g id="f1c13a63895e"><rect x="326" y="337.00000762939453" rx="1px" ry="1px" width="67" height="30" style="fill: transparent; stroke:none;"></rect><g><text text-anchor="start" align="top" anchor="start" font-family="微软雅黑" font-size="16px" font-weight="normal" fill="rgb(13, 11, 34)"><tspan x="340" y="357.87500915527346"><tspan>axios</tspan></tspan></text></g></g><g id="cc2cfdcbf378"><rect x="326" y="276.0000092983246" rx="1px" ry="1px" width="186" height="30" style="fill: transparent; stroke:none;"></rect><g><text text-anchor="start" align="top" anchor="start" font-family="微软雅黑" font-size="16px" font-weight="normal" fill="rgb(13, 11, 34)"><tspan x="340" y="296.87500915527346"><tspan>vue-admin-template</tspan></tspan></text></g></g><g id="b3ce742f7d6b"><rect x="326" y="214.00000762939453" rx="1px" ry="1px" width="111" height="30" style="fill: transparent; stroke:none;"></rect><g><text text-anchor="start" align="top" anchor="start" font-family="微软雅黑" font-size="16px" font-weight="normal" fill="rgb(13, 11, 34)"><tspan x="340" y="234.87500915527343"><tspan>element-ui</tspan></tspan></text></g></g><g id="dfa443f2d105"><rect x="326" y="153.00000762939453" rx="1px" ry="1px" width="110" height="30" style="fill: transparent; stroke:none;"></rect><g><text text-anchor="start" align="top" anchor="start" font-family="微软雅黑" font-size="16px" font-weight="normal" fill="rgb(13, 11, 34)"><tspan x="340" y="173.87500915527343"><tspan>vue-router</tspan></tspan></text></g></g><g id="1510622ff6e6"><rect x="326" y="92" rx="1px" ry="1px" width="63" height="30" style="fill: transparent; stroke:none;"></rect><g><text text-anchor="start" align="top" anchor="start" font-family="微软雅黑" font-size="16px" font-weight="normal" fill="rgb(13, 11, 34)"><tspan x="340" y="112.87500915527343"><tspan>vuex</tspan></tspan></text></g></g><g id="49ad50c6c8e8"><rect x="326" y="30" rx="1px" ry="1px" width="55" height="30" style="fill: transparent; stroke:none;"></rect><g><text text-anchor="start" align="top" anchor="start" font-family="微软雅黑" font-size="16px" font-weight="normal" fill="rgb(13, 11, 34)"><tspan x="340" y="50.87500915527344"><tspan>vue</tspan></tspan></text></g></g><g transform="translate(326, 582.0000152587891)" id="sdjakdjak0"><g id="subline_f4ba486d4f4e" transform="translate(0.5,-0.5)"></g><g transform="translate(0.5,0)"></g><g class="svg-summary-con" transform="translate(0.5,0.5)"></g></g><g transform="translate(326, 521.0000152587891)" id="sdjakdjak1"><g id="subline_967d70abdbe9" transform="translate(0.5,-0.5)"></g><g transform="translate(0.5,0)"></g><g class="svg-summary-con" transform="translate(0.5,0.5)"></g></g><g transform="translate(326, 460.00001525878906)" id="sdjakdjak2"><g id="subline_d3256a9aa186" transform="translate(0.5,-0.5)"></g><g transform="translate(0.5,0)"></g><g class="svg-summary-con" transform="translate(0.5,0.5)"></g></g><g transform="translate(326, 398.00000762939453)" id="sdjakdjak3"><g id="subline_65507e971bf9" transform="translate(0.5,-0.5)"></g><g transform="translate(0.5,0)"></g><g class="svg-summary-con" transform="translate(0.5,0.5)"></g></g><g transform="translate(326, 337.00000762939453)" id="sdjakdjak4"><g id="subline_f1c13a63895e" transform="translate(0.5,-0.5)"></g><g transform="translate(0.5,0)"></g><g class="svg-summary-con" transform="translate(0.5,0.5)"></g></g><g transform="translate(326, 276.0000092983246)" id="sdjakdjak5"><g id="subline_cc2cfdcbf378" transform="translate(0.5,-0.5)"></g><g transform="translate(0.5,0)"></g><g class="svg-summary-con" transform="translate(0.5,0.5)"></g></g><g transform="translate(326, 214.00000762939453)" id="sdjakdjak6"><g id="subline_b3ce742f7d6b" transform="translate(0.5,-0.5)"></g><g transform="translate(0.5,0)"></g><g class="svg-summary-con" transform="translate(0.5,0.5)"></g></g><g transform="translate(326, 153.00000762939453)" id="sdjakdjak7"><g id="subline_dfa443f2d105" transform="translate(0.5,-0.5)"></g><g transform="translate(0.5,0)"></g><g class="svg-summary-con" transform="translate(0.5,0.5)"></g></g><g transform="translate(326, 92)" id="sdjakdjak8"><g id="subline_1510622ff6e6" transform="translate(0.5,-0.5)"></g><g transform="translate(0.5,0)"></g><g class="svg-summary-con" transform="translate(0.5,0.5)"></g></g><g transform="translate(326, 30)" id="sdjakdjak9"><g id="subline_49ad50c6c8e8" transform="translate(0.5,-0.5)"></g><g transform="translate(0.5,0)"></g><g class="svg-summary-con" transform="translate(0.5,0.5)"></g></g><g transform="translate(30, 300.00000953674316)" id="sdjakdjak10"><g id="subline_root" transform="translate(0.5,-0.5)"></g><g transform="translate(0.5,0)"></g><g class="svg-summary-con" transform="translate(0.5,0.5)"></g></g><g id="root"><rect x="30" y="300.00000953674316" rx="7px" ry="7px" width="196" height="68" style="fill: #ffffff; stroke:none;"></rect><g><text text-anchor="start" align="top" anchor="start" font-family="微软雅黑" font-size="24px" font-weight="normal" fill="rgb(42, 46, 54)"><tspan x="68" y="341.72500839233396"><tspan>前端技术栈</tspan></tspan></text></g></g></svg>
