<?xml version="1.0" standalone="no"?><?xml-stylesheet type="text/css" href="https://www.processon.com/themes/default/mind/icons/icons.css" ?><!DOCTYPE svg PUBLIC "-//W3C//DTD SVG 1.1//EN" "http://www.w3.org/Graphics/SVG/1.1/DTD/svg11.dtd">
<svg xmlns="http://www.w3.org/2000/svg" version="1.1" xlink="http://www.w3.org/1999/xlink" id="mind-svg-con" width="724px" height="1083.5500183105469px" style="position: absolute; left: 0px; top: 0px; width: 724px; height: 1083.55px; background: rgb(247, 247, 247); z-index: 999;"><defs></defs><g id="svgbackgroundid"><defs></defs><rect x="0" y="0" width="724" height="1083.5500183105469" fill="#F7F7F7"></rect></g><g transform="translate(-9872, -9380.000396728516)" id="sdjakdjak4"><defs></defs><g class="svg-topic-con" transform="translate(0.5,0.5)"><path part="right" sub="true" id="line_f034a3a8c2f3" d="M 10000 9935.500396728516 L 10093 9935.500396728516 C 10133 9935.500396728516 10133 9738.5 10198 9738.5 L 10374 9738.5" stroke="#FCB52A" fill="none" stroke-width="3"></path><path part="right" sub="true" id="line_00d854c1821d" d="M 10000 9935.500396728516 L 10093 9935.500396728516 C 10133 9935.500396728516 10133 10142 10198 10142 L 10290 10142" stroke="#0D7C82" fill="none" stroke-width="3"></path><path part="right" sub="true" id="line_373d5eef6cc6" d="M 10000 9935.500396728516 L 10093 9935.500396728516 C 10133 9935.500396728516 10133 10340.5 10198 10340.5 L 10290 10340.5" stroke="#F88A35" fill="none" stroke-width="3"></path></g><g class="svg-connection-con" transform="translate(0.5,0.5)"></g><g class="svg-freesums-con" transform="translate(0.5,0.5)"></g></g><g id="373d5eef6cc6"><rect x="326" y="930.3875122070312" rx="1px" ry="1px" width="92" height="30" style="fill: transparent; stroke:none;"></rect><g><text text-anchor="start" align="top" anchor="start" font-family="微软雅黑" font-size="16px" font-weight="normal" fill="rgb(13, 11, 34)"><tspan x="340" y="951.2625061035156"><tspan>技术要点</tspan></tspan></text></g></g><g id="c51145713e73"><rect x="494" y="839" rx="1px" ry="1px" width="135" height="29" style="fill: transparent; stroke:none;"></rect><g><text text-anchor="start" align="top" anchor="start" font-family="微软雅黑" font-size="13px" font-weight="400" fill="rgb(13, 11, 34)"><tspan x="503" y="859.0875061035156"><tspan>微服务网关跨域问题</tspan></tspan></text></g></g><g id="f170e392766b"><rect x="494" y="884.8875122070312" rx="1px" ry="1px" width="109" height="29" style="fill: transparent; stroke:none;"></rect><g><text text-anchor="start" align="top" anchor="start" font-family="微软雅黑" font-size="13px" font-weight="400" fill="rgb(13, 11, 34)"><tspan x="503" y="904.9749877929687"><tspan>微服务应用监控</tspan></tspan></text></g></g><g id="4252bbe4125a"><rect x="494" y="930.7749938964844" rx="1px" ry="1px" width="109" height="29" style="fill: transparent; stroke:none;"></rect><g><text text-anchor="start" align="top" anchor="start" font-family="微软雅黑" font-size="13px" font-weight="400" fill="rgb(13, 11, 34)"><tspan x="503" y="950.8625305175781"><tspan>微服务性能监控</tspan></tspan></text></g></g><g id="30b53addfb0f"><rect x="494" y="976.6625061035156" rx="1px" ry="1px" width="135" height="29" style="fill: transparent; stroke:none;"></rect><g><text text-anchor="start" align="top" anchor="start" font-family="微软雅黑" font-size="13px" font-weight="400" fill="rgb(13, 11, 34)"><tspan x="503" y="996.7499816894531"><tspan>微服务权限解决方案</tspan></tspan></text></g></g><g id="6a20ed570bcc"><rect x="494" y="1022.5500183105469" rx="1px" ry="1px" width="109" height="29" style="fill: transparent; stroke:none;"></rect><g><text text-anchor="start" align="top" anchor="start" font-family="微软雅黑" font-size="13px" font-weight="400" fill="rgb(13, 11, 34)"><tspan x="503" y="1042.6374938964843"><tspan>微服务聚合文档</tspan></tspan></text></g></g><g id="00d854c1821d"><rect x="326" y="732.5" rx="1px" ry="1px" width="92" height="29" style="fill: transparent; stroke:none;"></rect><g><text text-anchor="start" align="top" anchor="start" font-family="微软雅黑" font-size="16px" font-weight="normal" fill="rgb(13, 11, 34)"><tspan x="340" y="753.3749938964844"><tspan>项目部署</tspan></tspan></text></g></g><g id="79382b774987"><rect x="494" y="687" rx="1px" ry="1px" width="127" height="29" style="fill: transparent; stroke:none;"></rect><g><text text-anchor="start" align="top" anchor="start" font-family="微软雅黑" font-size="13px" font-weight="400" fill="rgb(13, 11, 34)"><tspan x="503" y="707.0875061035156"><tspan>Windows下的部署</tspan></tspan></text></g></g><g id="a2786658bf4f"><rect x="494" y="732.8875122070312" rx="1px" ry="1px" width="160" height="29" style="fill: transparent; stroke:none;"></rect><g><text text-anchor="start" align="top" anchor="start" font-family="微软雅黑" font-size="13px" font-weight="400" fill="rgb(13, 11, 34)"><tspan x="503" y="752.9749877929687"><tspan>Linux下使用Docker部署</tspan></tspan></text></g></g><g id="2fb30ef3fb74"><rect x="494" y="778.7749938964844" rx="1px" ry="1px" width="200" height="29" style="fill: transparent; stroke:none;"></rect><g><text text-anchor="start" align="top" anchor="start" font-family="微软雅黑" font-size="13px" font-weight="400" fill="rgb(13, 11, 34)"><tspan x="503" y="798.8625"><tspan>Linux下使用Jenkins自动化部署</tspan></tspan></text></g></g><g id="f034a3a8c2f3"><rect x="326" y="327.87499237060547" rx="1px" ry="1px" width="176" height="30" style="fill: transparent; stroke:none;"></rect><g><text text-anchor="start" align="top" anchor="start" font-family="微软雅黑" font-size="16px" font-weight="normal" fill="rgb(13, 11, 34)"><tspan x="340" y="348.7499938964844"><tspan>Spring Cloud技术栈</tspan></tspan></text></g></g><g id="019ffac9f7eb"><rect x="577.875" y="30" rx="1px" ry="1px" width="60" height="29" style="fill: transparent; stroke:none;"></rect><g><text text-anchor="start" align="top" anchor="start" font-family="微软雅黑" font-size="13px" font-weight="400" fill="rgb(13, 11, 34)"><tspan x="586.875" y="50.0874755859375"><tspan>Eureka</tspan></tspan></text></g></g><g id="da83e44cbdc8"><rect x="577.875" y="75.88748168945312" rx="1px" ry="1px" width="63" height="29" style="fill: transparent; stroke:none;"></rect><g><text text-anchor="start" align="top" anchor="start" font-family="微软雅黑" font-size="13px" font-weight="400" fill="rgb(13, 11, 34)"><tspan x="586.875" y="95.97498779296875"><tspan>Ribbon</tspan></tspan></text></g></g><g id="70686332d808"><rect x="577.875" y="121.77499389648438" rx="1px" ry="1px" width="61" height="29" style="fill: transparent; stroke:none;"></rect><g><text text-anchor="start" align="top" anchor="start" font-family="微软雅黑" font-size="13px" font-weight="400" fill="rgb(13, 11, 34)"><tspan x="586.875" y="141.8625"><tspan>Hystrix</tspan></tspan></text></g></g><g id="7d49962934b3"><rect x="577.875" y="167.66249084472656" rx="1px" ry="1px" width="86" height="29" style="fill: transparent; stroke:none;"></rect><g><text text-anchor="start" align="top" anchor="start" font-family="微软雅黑" font-size="13px" font-weight="400" fill="rgb(13, 11, 34)"><tspan x="586.875" y="187.7499969482422"><tspan>OpenFeign</tspan></tspan></text></g></g><g id="ff8760599a11"><rect x="577.875" y="213.54998779296875" rx="1px" ry="1px" width="46" height="29" style="fill: transparent; stroke:none;"></rect><g><text text-anchor="start" align="top" anchor="start" font-family="微软雅黑" font-size="13px" font-weight="400" fill="rgb(13, 11, 34)"><tspan x="586.875" y="233.6374938964844"><tspan>Zuul</tspan></tspan></text></g></g><g id="3cc6ca4e4c07"><rect x="577.875" y="259.43748474121094" rx="1px" ry="1px" width="59" height="29" style="fill: transparent; stroke:none;"></rect><g><text text-anchor="start" align="top" anchor="start" font-family="微软雅黑" font-size="13px" font-weight="400" fill="rgb(13, 11, 34)"><tspan x="586.875" y="279.5249908447266"><tspan>Config</tspan></tspan></text></g></g><g id="fcc75d20a603"><rect x="577.875" y="305.32498931884766" rx="1px" ry="1px" width="40" height="29" style="fill: transparent; stroke:none;"></rect><g><text text-anchor="start" align="top" anchor="start" font-family="微软雅黑" font-size="13px" font-weight="400" fill="rgb(13, 11, 34)"><tspan x="586.875" y="325.4124954223633"><tspan>Bus</tspan></tspan></text></g></g><g id="d5d96ed39941"><rect x="577.875" y="351.2124938964844" rx="1px" ry="1px" width="58" height="29" style="fill: transparent; stroke:none;"></rect><g><text text-anchor="start" align="top" anchor="start" font-family="微软雅黑" font-size="13px" font-weight="400" fill="rgb(13, 11, 34)"><tspan x="586.875" y="371.2999923706055"><tspan>Sleuth</tspan></tspan></text></g></g><g id="6af33f95ec33"><rect x="577.875" y="397.0999927520752" rx="1px" ry="1px" width="61" height="29" style="fill: transparent; stroke:none;"></rect><g><text text-anchor="start" align="top" anchor="start" font-family="微软雅黑" font-size="13px" font-weight="400" fill="rgb(13, 11, 34)"><tspan x="586.875" y="417.18749313354493"><tspan>Consul</tspan></tspan></text></g></g><g id="83157b845835"><rect x="577.875" y="442.98749351501465" rx="1px" ry="1px" width="71" height="29" style="fill: transparent; stroke:none;"></rect><g><text text-anchor="start" align="top" anchor="start" font-family="微软雅黑" font-size="13px" font-weight="400" fill="rgb(13, 11, 34)"><tspan x="586.875" y="463.0749938964844"><tspan>Gateway</tspan></tspan></text></g></g><g id="73bfdcca505f"><rect x="577.875" y="488.87499237060547" rx="1px" ry="1px" width="64" height="29" style="fill: transparent; stroke:none;"></rect><g><text text-anchor="start" align="top" anchor="start" font-family="微软雅黑" font-size="13px" font-weight="400" fill="rgb(13, 11, 34)"><tspan x="586.875" y="508.9624984741211"><tspan>Oauth2</tspan></tspan></text></g></g><g id="7299c205126e"><rect x="577.875" y="534.7624969482422" rx="1px" ry="1px" width="57" height="29" style="fill: transparent; stroke:none;"></rect><g><text text-anchor="start" align="top" anchor="start" font-family="微软雅黑" font-size="13px" font-weight="400" fill="rgb(13, 11, 34)"><tspan x="586.875" y="554.8499954223632"><tspan>Nacos</tspan></tspan></text></g></g><g id="c4809abc31a9"><rect x="577.875" y="580.6499938964844" rx="1px" ry="1px" width="68" height="29" style="fill: transparent; stroke:none;"></rect><g><text text-anchor="start" align="top" anchor="start" font-family="微软雅黑" font-size="13px" font-weight="400" fill="rgb(13, 11, 34)"><tspan x="586.875" y="600.7375"><tspan>Sentinel</tspan></tspan></text></g></g><g id="f9f399c5fac7"><rect x="577.875" y="626.5374908447266" rx="1px" ry="1px" width="52" height="29" style="fill: transparent; stroke:none;"></rect><g><text text-anchor="start" align="top" anchor="start" font-family="微软雅黑" font-size="13px" font-weight="400" fill="rgb(13, 11, 34)"><tspan x="586.875" y="646.6249969482421"><tspan>Seata</tspan></tspan></text></g></g><g transform="translate(326, 839)" id="sdjakdjak0"><g id="subline_373d5eef6cc6" transform="translate(0.5,-0.5)"><path id="line_c51145713e73" d="M 92 123 L 92 123 M 92 123 C 138 123 130 30 168 30 L 303 30" p="373d5eef6cc6" stroke="#F88A35" fill="none" stroke-linecap="square" stroke-width="3"></path><path id="line_f170e392766b" d="M 92 123 L 92 123 M 92 123 C 138 123 130 76 168 76 L 277 76" p="373d5eef6cc6" stroke="#F88A35" fill="none" stroke-linecap="square" stroke-width="3"></path><path id="line_4252bbe4125a" d="M 92 123 L 92 123 M 92 123 C 138 123 130 122 168 122 L 277 122" p="373d5eef6cc6" stroke="#F88A35" fill="none" stroke-linecap="square" stroke-width="3"></path><path id="line_30b53addfb0f" d="M 92 123 L 92 123 M 92 123 C 138 123 130 168 168 168 L 303 168" p="373d5eef6cc6" stroke="#F88A35" fill="none" stroke-linecap="square" stroke-width="3"></path><path id="line_6a20ed570bcc" d="M 92 123 L 92 123 M 92 123 C 138 123 130 214 168 214 L 277 214" p="373d5eef6cc6" stroke="#F88A35" fill="none" stroke-linecap="square" stroke-width="3"></path></g><g transform="translate(0.5,0)"></g><g class="svg-summary-con" transform="translate(0.5,0.5)"></g></g><g transform="translate(326, 687)" id="sdjakdjak1"><g id="subline_00d854c1821d" transform="translate(0.5,-0.5)"><path id="line_79382b774987" d="M 92 76 L 92 76 M 92 76 C 138 76 130 30 168 30 L 295 30" p="00d854c1821d" stroke="#0D7C82" fill="none" stroke-linecap="square" stroke-width="3"></path><path id="line_a2786658bf4f" d="M 92 76 L 92 76 M 92 76 C 138 76 130 76 168 76 L 328 76" p="00d854c1821d" stroke="#0D7C82" fill="none" stroke-linecap="square" stroke-width="3"></path><path id="line_2fb30ef3fb74" d="M 92 76 L 92 76 M 92 76 C 138 76 130 122 168 122 L 368 122" p="00d854c1821d" stroke="#0D7C82" fill="none" stroke-linecap="square" stroke-width="3"></path></g><g transform="translate(0.5,0)"></g><g class="svg-summary-con" transform="translate(0.5,0.5)"></g></g><g transform="translate(326, 30)" id="sdjakdjak2"><g id="subline_f034a3a8c2f3" transform="translate(0.5,-0.5)"><path id="line_019ffac9f7eb" d="M 176 330 L 176 330 M 176 330 C 221.875 330 213.9375 30 251.875 30 L 311.875 30" p="f034a3a8c2f3" stroke="#FCB52A" fill="none" stroke-linecap="square" stroke-width="3"></path><path id="line_da83e44cbdc8" d="M 176 330 L 176 330 M 176 330 C 221.875 330 213.9375 76 251.875 76 L 314.875 76" p="f034a3a8c2f3" stroke="#FCB52A" fill="none" stroke-linecap="square" stroke-width="3"></path><path id="line_70686332d808" d="M 176 330 L 176 330 M 176 330 C 221.875 330 213.9375 122 251.875 122 L 312.875 122" p="f034a3a8c2f3" stroke="#FCB52A" fill="none" stroke-linecap="square" stroke-width="3"></path><path id="line_7d49962934b3" d="M 176 330 L 176 330 M 176 330 C 221.875 330 213.9375 168 251.875 168 L 337.875 168" p="f034a3a8c2f3" stroke="#FCB52A" fill="none" stroke-linecap="square" stroke-width="3"></path><path id="line_ff8760599a11" d="M 176 330 L 176 330 M 176 330 C 221.875 330 213.9375 214 251.875 214 L 297.875 214" p="f034a3a8c2f3" stroke="#FCB52A" fill="none" stroke-linecap="square" stroke-width="3"></path><path id="line_3cc6ca4e4c07" d="M 176 330 L 176 330 M 176 330 C 221.875 330 213.9375 259 251.875 259 L 310.875 259" p="f034a3a8c2f3" stroke="#FCB52A" fill="none" stroke-linecap="square" stroke-width="3"></path><path id="line_fcc75d20a603" d="M 176 330 L 176 330 M 176 330 C 221.875 330 213.9375 305 251.875 305 L 291.875 305" p="f034a3a8c2f3" stroke="#FCB52A" fill="none" stroke-linecap="square" stroke-width="3"></path><path id="line_d5d96ed39941" d="M 176 330 L 176 330 M 176 330 C 221.875 330 213.9375 351 251.875 351 L 309.875 351" p="f034a3a8c2f3" stroke="#FCB52A" fill="none" stroke-linecap="square" stroke-width="3"></path><path id="line_6af33f95ec33" d="M 176 330 L 176 330 M 176 330 C 221.875 330 213.9375 397 251.875 397 L 312.875 397" p="f034a3a8c2f3" stroke="#FCB52A" fill="none" stroke-linecap="square" stroke-width="3"></path><path id="line_83157b845835" d="M 176 330 L 176 330 M 176 330 C 221.875 330 213.9375 443 251.875 443 L 322.875 443" p="f034a3a8c2f3" stroke="#FCB52A" fill="none" stroke-linecap="square" stroke-width="3"></path><path id="line_73bfdcca505f" d="M 176 330 L 176 330 M 176 330 C 221.875 330 213.9375 489 251.875 489 L 315.875 489" p="f034a3a8c2f3" stroke="#FCB52A" fill="none" stroke-linecap="square" stroke-width="3"></path><path id="line_7299c205126e" d="M 176 330 L 176 330 M 176 330 C 221.875 330 213.9375 535 251.875 535 L 308.875 535" p="f034a3a8c2f3" stroke="#FCB52A" fill="none" stroke-linecap="square" stroke-width="3"></path><path id="line_c4809abc31a9" d="M 176 330 L 176 330 M 176 330 C 221.875 330 213.9375 581 251.875 581 L 319.875 581" p="f034a3a8c2f3" stroke="#FCB52A" fill="none" stroke-linecap="square" stroke-width="3"></path><path id="line_f9f399c5fac7" d="M 176 330 L 176 330 M 176 330 C 221.875 330 213.9375 627 251.875 627 L 303.875 627" p="f034a3a8c2f3" stroke="#FCB52A" fill="none" stroke-linecap="square" stroke-width="3"></path></g><g transform="translate(0.5,0)"></g><g class="svg-summary-con" transform="translate(0.5,0.5)"></g></g><g transform="translate(30, 521.9999923706055)" id="sdjakdjak3"><g id="subline_root" transform="translate(0.5,-0.5)"></g><g transform="translate(0.5,0)"></g><g class="svg-summary-con" transform="translate(0.5,0.5)"></g></g><g id="root"><rect x="30" y="521.9999923706055" rx="7px" ry="7px" width="196" height="68" style="fill: #ffffff; stroke:none;"></rect><g><text text-anchor="start" align="top" anchor="start" font-family="微软雅黑" font-size="24px" font-weight="normal" fill="rgb(42, 46, 54)"><tspan x="68" y="563.7249969482422"><tspan>进阶微服务</tspan></tspan></text></g></g></svg>
