<?xml version="1.0" standalone="no"?><?xml-stylesheet type="text/css" href="https://www.processon.com/themes/default/mind/icons/icons.css" ?><!DOCTYPE svg PUBLIC "-//W3C//DTD SVG 1.1//EN" "http://www.w3.org/Graphics/SVG/1.1/DTD/svg11.dtd">
<svg xmlns="http://www.w3.org/2000/svg" version="1.1" xlink="http://www.w3.org/1999/xlink" id="mind-svg-con" width="710.625px" height="838px" style="position: absolute; left: 0px; top: 0px; width: 710.625px; height: 838px; background: rgb(247, 247, 247); z-index: 999;"><defs></defs><g id="svgbackgroundid"><defs></defs><rect x="0" y="0" width="710.625" height="838" fill="#F7F7F7"></rect></g><g transform="translate(-9884, -9504.000396728516)" id="sdjakdjak9"><defs></defs><g class="svg-topic-con" transform="translate(0.5,0.5)"><path part="right" sub="true" id="line_8b24864bb852" d="M 10000 9935.50039100647 L 10081 9935.50039100647 C 10121 9935.50039100647 10121 9655.5 10186 9655.5 L 10251 9655.5" stroke="#FA5465" fill="none" stroke-width="3"></path><path part="right" sub="true" id="line_679e072ee9a5" d="M 10000 9935.50039100647 L 10081 9935.50039100647 C 10121 9935.50039100647 10121 9830.5 10186 9830.5 L 10272 9830.5" stroke="#FD5155" fill="none" stroke-width="3"></path><path part="right" sub="true" id="line_7dd0c24215cd" d="M 10000 9935.50039100647 L 10081 9935.50039100647 C 10121 9935.50039100647 10121 9937.5 10186 9937.5 L 10275 9937.5" stroke="#80BA4C" fill="none" stroke-width="3"></path><path part="right" sub="true" id="line_4f083f5485d1" d="M 10000 9935.50039100647 L 10081 9935.50039100647 C 10121 9935.50039100647 10121 10044.5 10186 10044.5 L 10236 10044.5" stroke="#FCB52A" fill="none" stroke-width="3"></path><path part="right" sub="true" id="line_f2f5d2ef31ce" d="M 10000 9935.50039100647 L 10081 9935.50039100647 C 10121 9935.50039100647 10121 10128.5 10186 10128.5 L 10264 10128.5" stroke="#7549C5" fill="none" stroke-width="3"></path><path part="right" sub="true" id="line_602e740016dd" d="M 10000 9935.50039100647 L 10081 9935.50039100647 C 10121 9935.50039100647 10121 10185.5 10186 10185.5 L 10391 10185.5" stroke="#F88A35" fill="none" stroke-width="3"></path><path part="right" sub="true" id="line_4ea6ae3545c5" d="M 10000 9935.50039100647 L 10081 9935.50039100647 C 10121 9935.50039100647 10121 10249.5 10186 10249.5 L 10362 10249.5" stroke="#0F80C4" fill="none" stroke-width="3"></path><path part="right" sub="true" id="line_e78dcce8bd71" d="M 10000 9935.50039100647 L 10081 9935.50039100647 C 10121 9935.50039100647 10121 10310.5 10186 10310.5 L 10282 10310.5" stroke="#BE49C4" fill="none" stroke-width="3"></path></g><g class="svg-connection-con" transform="translate(0.5,0.5)"></g><g class="svg-freesums-con" transform="translate(0.5,0.5)"></g></g><g id="e78dcce8bd71"><rect x="302" y="776" rx="1px" ry="1px" width="96" height="30" style="fill: transparent; stroke:none;"></rect><g><text text-anchor="start" align="top" anchor="start" font-family="微软雅黑" font-size="16px" font-weight="normal" fill="rgb(13, 11, 34)"><tspan x="316" y="796.8749938964844"><tspan>DataGrip</tspan></tspan></text></g></g><g id="c38fdfaef4e9"><rect x="474.32501220703125" y="776.3875122070312" rx="1px" ry="1px" width="152" height="29" style="fill: transparent; stroke:none;"></rect><g><text text-anchor="start" align="top" anchor="start" font-family="微软雅黑" font-size="13px" font-weight="400" fill="rgb(13, 11, 34)"><tspan x="483.32501220703125" y="796.4749877929687"><tspan>IDEA同款数据库客户端</tspan></tspan></text></g></g><g id="4ea6ae3545c5"><rect x="302" y="715" rx="1px" ry="1px" width="176" height="30" style="fill: transparent; stroke:none;"></rect><g><text text-anchor="start" align="top" anchor="start" font-family="微软雅黑" font-size="16px" font-weight="normal" fill="rgb(13, 11, 34)"><tspan x="316" y="735.8749938964844"><tspan>MySQL Workbench</tspan></tspan></text></g></g><g id="e682e7a698ec"><rect x="553.625" y="715.3875122070312" rx="1px" ry="1px" width="127" height="29" style="fill: transparent; stroke:none;"></rect><g><text text-anchor="start" align="top" anchor="start" font-family="微软雅黑" font-size="13px" font-weight="400" fill="rgb(13, 11, 34)"><tspan x="562.625" y="735.4749877929687"><tspan>MySQL官方客户端</tspan></tspan></text></g></g><g id="602e740016dd"><rect x="302" y="657.4624938964844" rx="1px" ry="1px" width="205" height="24" style="fill: transparent; stroke:none;"></rect><g><text text-anchor="start" align="top" anchor="start" font-family="微软雅黑" font-size="12px" font-weight="normal" fill="rgb(13, 11, 34)"><tspan x="316" y="673.825"><tspan>AnotherRedisDesktopManager</tspan></tspan></text></g></g><g id="bb624db0b69e"><rect x="583.0375366210938" y="655" rx="1px" ry="1px" width="90" height="29" style="fill: transparent; stroke:none;"></rect><g><text text-anchor="start" align="top" anchor="start" font-family="微软雅黑" font-size="13px" font-weight="400" fill="rgb(13, 11, 34)"><tspan x="592.0375366210938" y="675.0875061035156"><tspan>Redis客户端</tspan></tspan></text></g></g><g id="f2f5d2ef31ce"><rect x="302" y="594" rx="1px" ry="1px" width="78" height="30" style="fill: transparent; stroke:none;"></rect><g><text text-anchor="start" align="top" anchor="start" font-family="微软雅黑" font-size="16px" font-weight="normal" fill="rgb(13, 11, 34)"><tspan x="316" y="614.8749938964844"><tspan>Arthas</tspan></tspan></text></g></g><g id="1d419b4f7c76"><rect x="455.4375" y="594.3874969482422" rx="1px" ry="1px" width="96" height="29" style="fill: transparent; stroke:none;"></rect><g><text text-anchor="start" align="top" anchor="start" font-family="微软雅黑" font-size="13px" font-weight="400" fill="rgb(13, 11, 34)"><tspan x="464.4375" y="614.4750030517578"><tspan>线上调试利器</tspan></tspan></text></g></g><g id="4f083f5485d1"><rect x="302" y="509.5500030517578" rx="1px" ry="1px" width="50" height="30" style="fill: transparent; stroke:none;"></rect><g><text text-anchor="start" align="top" anchor="start" font-family="微软雅黑" font-size="16px" font-weight="normal" fill="rgb(13, 11, 34)"><tspan x="316" y="530.4249969482422"><tspan>Git</tspan></tspan></text></g></g><g id="c317e9c77c0a"><rect x="428.125" y="486.99999237060547" rx="1px" ry="1px" width="120" height="29" style="fill: transparent; stroke:none;"></rect><g><text text-anchor="start" align="top" anchor="start" font-family="微软雅黑" font-size="13px" font-weight="400" fill="rgb(13, 11, 34)"><tspan x="437.125" y="507.0874984741211"><tspan>Gitlab搭建与使用</tspan></tspan></text></g></g><g id="ca65f3f46467"><rect x="428.125" y="532.8874969482422" rx="1px" ry="1px" width="115" height="29" style="fill: transparent; stroke:none;"></rect><g><text text-anchor="start" align="top" anchor="start" font-family="微软雅黑" font-size="13px" font-weight="400" fill="rgb(13, 11, 34)"><tspan x="437.125" y="552.9750030517578"><tspan>Gogs搭建与使用</tspan></tspan></text></g></g><g id="7dd0c24215cd"><rect x="302" y="402.5499954223633" rx="1px" ry="1px" width="89" height="30" style="fill: transparent; stroke:none;"></rect><g><text text-anchor="start" align="top" anchor="start" font-family="微软雅黑" font-size="16px" font-weight="normal" fill="rgb(13, 11, 34)"><tspan x="316" y="423.42499313354494"><tspan>Posman</tspan></tspan></text></g></g><g id="5c6586f1cbf0"><rect x="467.0625" y="379.9999942779541" rx="1px" ry="1px" width="91" height="29" style="fill: transparent; stroke:none;"></rect><g><text text-anchor="start" align="top" anchor="start" font-family="微软雅黑" font-size="13px" font-weight="400" fill="rgb(13, 11, 34)"><tspan x="476.0625" y="400.08749465942384"><tspan>API接口调试</tspan></tspan></text></g></g><g id="56417bdb2845"><rect x="467.0625" y="425.8874931335449" rx="1px" ry="1px" width="124" height="29" style="fill: transparent; stroke:none;"></rect><g><text text-anchor="start" align="top" anchor="start" font-family="微软雅黑" font-size="13px" font-weight="400" fill="rgb(13, 11, 34)"><tspan x="476.0625" y="445.9749954223633"><tspan>增强Swagger功能</tspan></tspan></text></g></g><g id="679e072ee9a5"><rect x="302" y="296.5499954223633" rx="1px" ry="1px" width="86" height="30" style="fill: transparent; stroke:none;"></rect><g><text text-anchor="start" align="top" anchor="start" font-family="微软雅黑" font-size="16px" font-weight="normal" fill="rgb(13, 11, 34)"><tspan x="316" y="317.4249893188477"><tspan>Navicat</tspan></tspan></text></g></g><g id="1f0789888077"><rect x="463.3375244140625" y="273.99999237060547" rx="1px" ry="1px" width="135" height="29" style="fill: transparent; stroke:none;"></rect><g><text text-anchor="start" align="top" anchor="start" font-family="微软雅黑" font-size="13px" font-weight="400" fill="rgb(13, 11, 34)"><tspan x="472.3375244140625" y="294.0874908447266"><tspan>数据备份与结构同步</tspan></tspan></text></g></g><g id="3b79c1e2944d"><rect x="463.3375244140625" y="319.8874931335449" rx="1px" ry="1px" width="83" height="29" style="fill: transparent; stroke:none;"></rect><g><text text-anchor="start" align="top" anchor="start" font-family="微软雅黑" font-size="13px" font-weight="400" fill="rgb(13, 11, 34)"><tspan x="472.3375244140625" y="339.974991607666"><tspan>设计数据库</tspan></tspan></text></g></g><g id="8b24864bb852"><rect x="302" y="121.38749694824219" rx="1px" ry="1px" width="65" height="30" style="fill: transparent; stroke:none;"></rect><g><text text-anchor="start" align="top" anchor="start" font-family="微软雅黑" font-size="16px" font-weight="normal" fill="rgb(13, 11, 34)"><tspan x="316" y="142.26249084472656"><tspan>IDEA</tspan></tspan></text></g></g><g id="ff32438bbba8"><rect x="442.95001220703125" y="30" rx="1px" ry="1px" width="70" height="29" style="fill: transparent; stroke:none;"></rect><g><text text-anchor="start" align="top" anchor="start" font-family="微软雅黑" font-size="13px" font-weight="400" fill="rgb(13, 11, 34)"><tspan x="451.95001220703125" y="50.0874755859375"><tspan>常用设置</tspan></tspan></text></g></g><g id="213d8c007705"><rect x="442.95001220703125" y="75.88748168945312" rx="1px" ry="1px" width="70" height="29" style="fill: transparent; stroke:none;"></rect><g><text text-anchor="start" align="top" anchor="start" font-family="微软雅黑" font-size="13px" font-weight="400" fill="rgb(13, 11, 34)"><tspan x="451.95001220703125" y="95.97498779296875"><tspan>常用插件</tspan></tspan></text></g></g><g id="6878caec14bf"><rect x="442.95001220703125" y="121.77499389648438" rx="1px" ry="1px" width="62" height="29" style="fill: transparent; stroke:none;"></rect><g><text text-anchor="start" align="top" anchor="start" font-family="微软雅黑" font-size="13px" font-weight="400" fill="rgb(13, 11, 34)"><tspan x="451.95001220703125" y="141.86248474121095"><tspan>Git操作</tspan></tspan></text></g></g><g id="6a1059601fc6"><rect x="442.95001220703125" y="167.66249084472656" rx="1px" ry="1px" width="170" height="29" style="fill: transparent; stroke:none;"></rect><g><text text-anchor="start" align="top" anchor="start" font-family="微软雅黑" font-size="13px" font-weight="400" fill="rgb(13, 11, 34)"><tspan x="451.95001220703125" y="187.7499969482422"><tspan>Spring Boot项目使用技巧</tspan></tspan></text></g></g><g id="eb01d59a9aee"><rect x="442.95001220703125" y="213.54998779296875" rx="1px" ry="1px" width="112" height="29" style="fill: transparent; stroke:none;"></rect><g><text text-anchor="start" align="top" anchor="start" font-family="微软雅黑" font-size="13px" font-weight="400" fill="rgb(13, 11, 34)"><tspan x="451.95001220703125" y="233.6374938964844"><tspan>Debug调试技巧</tspan></tspan></text></g></g><g transform="translate(302, 776)" id="sdjakdjak0"><g id="subline_e78dcce8bd71" transform="translate(0.5,-0.5)"><path id="line_c38fdfaef4e9" d="M 96 32 L 96 32 M 96 32 C 142.32501220703125 32 134.16250610351562 31 172.32501220703125 31 L 324.32501220703125 31" p="e78dcce8bd71" stroke="#BE49C4" fill="none" stroke-linecap="square" stroke-width="3"></path></g><g transform="translate(0.5,0)"></g><g class="svg-summary-con" transform="translate(0.5,0.5)"></g></g><g transform="translate(302, 715)" id="sdjakdjak1"><g id="subline_4ea6ae3545c5" transform="translate(0.5,-0.5)"><path id="line_e682e7a698ec" d="M 176 32 L 176 32 M 176 32 C 221.625 32 213.8125 31 251.625 31 L 378.625 31" p="4ea6ae3545c5" stroke="#0F80C4" fill="none" stroke-linecap="square" stroke-width="3"></path></g><g transform="translate(0.5,0)"></g><g class="svg-summary-con" transform="translate(0.5,0.5)"></g></g><g transform="translate(302, 655)" id="sdjakdjak2"><g id="subline_602e740016dd" transform="translate(0.5,-0.5)"><path id="line_bb624db0b69e" d="M 205 28 L 205 28 M 205 28 C 251.03753662109375 28 243.01876831054688 30 281.03753662109375 30 L 371.03753662109375 30" p="602e740016dd" stroke="#F88A35" fill="none" stroke-linecap="square" stroke-width="3"></path></g><g transform="translate(0.5,0)"></g><g class="svg-summary-con" transform="translate(0.5,0.5)"></g></g><g transform="translate(302, 594)" id="sdjakdjak3"><g id="subline_f2f5d2ef31ce" transform="translate(0.5,-0.5)"><path id="line_1d419b4f7c76" d="M 78 32 L 78 32 M 78 32 C 123.4375 32 115.71875 31 153.4375 31 L 249.4375 31" p="f2f5d2ef31ce" stroke="#7549C5" fill="none" stroke-linecap="square" stroke-width="3"></path></g><g transform="translate(0.5,0)"></g><g class="svg-summary-con" transform="translate(0.5,0.5)"></g></g><g transform="translate(302, 486.99999237060547)" id="sdjakdjak4"><g id="subline_4f083f5485d1" transform="translate(0.5,-0.5)"><path id="line_c317e9c77c0a" d="M 50 55 L 50 55 M 50 55 C 96.125 55 88.0625 30 126.125 30 L 246.125 30" p="4f083f5485d1" stroke="#FCB52A" fill="none" stroke-linecap="square" stroke-width="3"></path><path id="line_ca65f3f46467" d="M 50 55 L 50 55 M 50 55 C 96.125 55 88.0625 76 126.125 76 L 241.125 76" p="4f083f5485d1" stroke="#FCB52A" fill="none" stroke-linecap="square" stroke-width="3"></path></g><g transform="translate(0.5,0)"></g><g class="svg-summary-con" transform="translate(0.5,0.5)"></g></g><g transform="translate(302, 379.9999942779541)" id="sdjakdjak5"><g id="subline_7dd0c24215cd" transform="translate(0.5,-0.5)"><path id="line_5c6586f1cbf0" d="M 89 55 L 89 55 M 89 55 C 135.0625 55 127.03125 30 165.0625 30 L 256.0625 30" p="7dd0c24215cd" stroke="#80BA4C" fill="none" stroke-linecap="square" stroke-width="3"></path><path id="line_56417bdb2845" d="M 89 55 L 89 55 M 89 55 C 135.0625 55 127.03125 76 165.0625 76 L 289.0625 76" p="7dd0c24215cd" stroke="#80BA4C" fill="none" stroke-linecap="square" stroke-width="3"></path></g><g transform="translate(0.5,0)"></g><g class="svg-summary-con" transform="translate(0.5,0.5)"></g></g><g transform="translate(302, 273.99999237060547)" id="sdjakdjak6"><g id="subline_679e072ee9a5" transform="translate(0.5,-0.5)"><path id="line_1f0789888077" d="M 86 54 L 86 54 M 86 54 C 131.3375244140625 54 123.66876220703125 30 161.3375244140625 30 L 296.3375244140625 30" p="679e072ee9a5" stroke="#FD5155" fill="none" stroke-linecap="square" stroke-width="3"></path><path id="line_3b79c1e2944d" d="M 86 54 L 86 54 M 86 54 C 131.3375244140625 54 123.66876220703125 76 161.3375244140625 76 L 244.3375244140625 76" p="679e072ee9a5" stroke="#FD5155" fill="none" stroke-linecap="square" stroke-width="3"></path></g><g transform="translate(0.5,0)"></g><g class="svg-summary-con" transform="translate(0.5,0.5)"></g></g><g transform="translate(302, 30)" id="sdjakdjak7"><g id="subline_8b24864bb852" transform="translate(0.5,-0.5)"><path id="line_ff32438bbba8" d="M 65 123 L 65 123 M 65 123 C 110.95001220703125 123 102.97500610351562 30 140.95001220703125 30 L 210.95001220703125 30" p="8b24864bb852" stroke="#FA5465" fill="none" stroke-linecap="square" stroke-width="3"></path><path id="line_213d8c007705" d="M 65 123 L 65 123 M 65 123 C 110.95001220703125 123 102.97500610351562 76 140.95001220703125 76 L 210.95001220703125 76" p="8b24864bb852" stroke="#FA5465" fill="none" stroke-linecap="square" stroke-width="3"></path><path id="line_6878caec14bf" d="M 65 123 L 65 123 M 65 123 C 110.95001220703125 123 102.97500610351562 122 140.95001220703125 122 L 202.95001220703125 122" p="8b24864bb852" stroke="#FA5465" fill="none" stroke-linecap="square" stroke-width="3"></path><path id="line_6a1059601fc6" d="M 65 123 L 65 123 M 65 123 C 110.95001220703125 123 102.97500610351562 168 140.95001220703125 168 L 310.95001220703125 168" p="8b24864bb852" stroke="#FA5465" fill="none" stroke-linecap="square" stroke-width="3"></path><path id="line_eb01d59a9aee" d="M 65 123 L 65 123 M 65 123 C 110.95001220703125 123 102.97500610351562 214 140.95001220703125 214 L 252.95001220703125 214" p="8b24864bb852" stroke="#FA5465" fill="none" stroke-linecap="square" stroke-width="3"></path></g><g transform="translate(0.5,0)"></g><g class="svg-summary-con" transform="translate(0.5,0.5)"></g></g><g transform="translate(30, 397.9999942779541)" id="sdjakdjak8"><g id="subline_root" transform="translate(0.5,-0.5)"></g><g transform="translate(0.5,0)"></g><g class="svg-summary-con" transform="translate(0.5,0.5)"></g></g><g id="root"><rect x="30" y="397.9999942779541" rx="7px" ry="7px" width="172" height="68" style="fill: #ffffff; stroke:none;"></rect><g><text text-anchor="start" align="top" anchor="start" font-family="微软雅黑" font-size="24px" font-weight="normal" fill="rgb(42, 46, 54)"><tspan x="68" y="439.7249931335449"><tspan>开发工具</tspan></tspan></text></g></g></svg>
