<?xml version="1.0" standalone="no"?><!DOCTYPE svg PUBLIC "-//W3C//DTD SVG 1.1//EN" "http://www.w3.org/Graphics/SVG/1.1/DTD/svg11.dtd"><svg t="1562334613098" class="icon" viewBox="0 0 1024 1024" version="1.1" xmlns="http://www.w3.org/2000/svg" p-id="2182" xmlns:xlink="http://www.w3.org/1999/xlink" width="128" height="128"><defs><style type="text/css"></style></defs><path d="M1012.564482 294.487835L909.71732 21.080474a31.940112 31.940112 0 0 0-29.384903-21.080474H133.572591a31.940112 31.940112 0 0 0-30.023705 21.719276L1.979329 323.872739a50.465377 50.465377 0 0 0 0 23.635683 102.847162 102.847162 0 0 0 5.74922 21.080474A111.151591 111.151591 0 0 0 65.859553 435.663132v556.396756a31.940112 31.940112 0 0 0 31.940113 31.940112h825.332501a31.940112 31.940112 0 0 0 31.940112-31.940112V440.134747a116.900811 116.900811 0 0 0 63.880225-86.238303 63.880225 63.880225 0 0 0 0-28.107299 191.640674 191.640674 0 0 0-6.388022-31.30131zM664.417258 958.203369H357.153377v-305.986276h307.263881z m63.880224 0V620.276981a31.940112 31.940112 0 0 0-31.940112-31.940113H325.213265a31.940112 31.940112 0 0 0-31.940112 31.940113V958.203369H129.739778V447.161572a139.897692 139.897692 0 0 0 57.492202-32.578914A127.760449 127.760449 0 0 0 275.38669 447.161572a114.984404 114.984404 0 0 0 78.572676-35.772926A107.318777 107.318777 0 0 0 433.809647 447.161572 111.151591 111.151591 0 0 0 513.021125 413.305053 111.151591 111.151591 0 0 0 592.871406 447.161572a113.067998 113.067998 0 0 0 79.850281-36.411728 112.429195 112.429195 0 0 0 78.572676 36.411728A118.817218 118.817218 0 0 0 832.422248 413.305053a111.790393 111.790393 0 0 0 63.880225 34.495321v511.041797z m182.697443-574.922022a47.910168 47.910168 0 0 1-47.910169-47.910168V319.401123a31.30131 31.30131 0 1 0-63.880224 0 63.880225 63.880225 0 0 1 0 14.692452c-8.943231 30.662508-22.358079 51.10418-48.548971 51.104179a51.742982 51.742982 0 0 1-45.993762-50.465377V319.401123a31.940112 31.940112 0 0 0-63.880224 0v15.331254a51.742982 51.742982 0 0 1-47.910169 48.54897 47.910168 47.910168 0 0 1-46.632564-36.411728 22.358079 22.358079 0 0 1 0-10.859638v-17.886463a31.940112 31.940112 0 0 0-63.880224 0 261.908921 261.908921 0 0 1 0 26.190892 50.465377 50.465377 0 0 1-47.910169 38.966937 45.354959 45.354959 0 0 1-49.187773-42.79975v-3.832813V319.401123a31.30131 31.30131 0 0 0-31.30131-31.940112A32.578915 32.578915 0 0 0 321.380452 319.401123v19.164067a47.910168 47.910168 0 0 1-45.993762 44.716157c-26.190892 0-48.548971-7.665627-48.548971-33.856519v-31.30131a31.940112 31.940112 0 0 0-31.940112-31.940112 29.384903 29.384903 0 0 0-31.940112 31.940112v30.662508A47.910168 47.910168 0 0 1 65.859553 337.287586a44.716157 44.716157 0 0 1 0-5.110418L156.569472 63.880225h702.682471L960.182697 334.732377a47.910168 47.910168 0 0 1-48.54897 48.54897z" p-id="2183" fill="#3EB27B"></path></svg>