<?xml version="1.0" standalone="no"?><?xml-stylesheet type="text/css" href="https://www.processon.com/themes/default/mind/icons/icons.css" ?><!DOCTYPE svg PUBLIC "-//W3C//DTD SVG 1.1//EN" "http://www.w3.org/Graphics/SVG/1.1/DTD/svg11.dtd">
<svg xmlns="http://www.w3.org/2000/svg" version="1.1" xlink="http://www.w3.org/1999/xlink" id="mind-svg-con" width="612px" height="275px" style="position: absolute; left: 0px; top: 0px; width: 612px; height: 275px; background: rgb(247, 247, 247); z-index: 999;"><defs></defs><g id="svgbackgroundid"><defs></defs><rect x="0" y="0" width="612" height="275" fill="#F7F7F7"></rect></g><g transform="translate(-9884, -9785.000389099121)" id="sdjakdjak5"><defs></defs><g class="svg-topic-con" transform="translate(0.5,0.5)"><path part="right" sub="true" id="line_5a402b555269" d="M 10000 9935.50039100647 L 10081 9935.50039100647 C 10121 9935.50039100647 10121 9845.5 10186 9845.5 L 10349 9845.5" stroke="#0FBAB0" fill="none" stroke-width="3"></path><path part="right" sub="true" id="line_432eb21b2d54" d="M 10000 9935.50039100647 L 10081 9935.50039100647 C 10121 9935.50039100647 10121 9906.5 10186 9906.5 L 10388 9906.5" stroke="#FCB52A" fill="none" stroke-width="3"></path><path part="right" sub="true" id="line_3b037bd3477b" d="M 10000 9935.50039100647 L 10081 9935.50039100647 C 10121 9935.50039100647 10121 9968.5 10186 9968.5 L 10466 9968.5" stroke="#80BA4C" fill="none" stroke-width="3"></path><path part="right" sub="true" id="line_2249fc8ac2ee" d="M 10000 9935.50039100647 L 10081 9935.50039100647 C 10121 9935.50039100647 10121 10029.5 10186 10029.5 L 10438 10029.5" stroke="#7549C5" fill="none" stroke-width="3"></path></g><g class="svg-connection-con" transform="translate(0.5,0.5)"></g><g class="svg-freesums-con" transform="translate(0.5,0.5)"></g></g><g id="2249fc8ac2ee"><rect x="302" y="214" rx="1px" ry="1px" width="252" height="30" style="fill: transparent; stroke:none;"></rect><g><text text-anchor="start" align="top" anchor="start" font-family="微软雅黑" font-size="16px" font-weight="normal" fill="rgb(13, 11, 34)"><tspan x="316" y="234.8750015258789"><tspan>Linux下使用Jenkins自动化部署</tspan></tspan></text></g></g><g id="3b037bd3477b"><rect x="302" y="153.00000381469727" rx="1px" ry="1px" width="280" height="30" style="fill: transparent; stroke:none;"></rect><g><text text-anchor="start" align="top" anchor="start" font-family="微软雅黑" font-size="16px" font-weight="normal" fill="rgb(13, 11, 34)"><tspan x="316" y="173.8750015258789"><tspan>Linux下使用Docker Compose部署</tspan></tspan></text></g></g><g id="432eb21b2d54"><rect x="302" y="91.00000154972076" rx="1px" ry="1px" width="202" height="30" style="fill: transparent; stroke:none;"></rect><g><text text-anchor="start" align="top" anchor="start" font-family="微软雅黑" font-size="16px" font-weight="normal" fill="rgb(13, 11, 34)"><tspan x="316" y="111.8750015258789"><tspan>Linux下使用Docker部署</tspan></tspan></text></g></g><g id="5a402b555269"><rect x="302" y="30" rx="1px" ry="1px" width="163" height="30" style="fill: transparent; stroke:none;"></rect><g><text text-anchor="start" align="top" anchor="start" font-family="微软雅黑" font-size="16px" font-weight="normal" fill="rgb(13, 11, 34)"><tspan x="316" y="50.87500152587891"><tspan>Windows下的部署</tspan></tspan></text></g></g><g transform="translate(302, 214)" id="sdjakdjak0"><g id="subline_2249fc8ac2ee" transform="translate(0.5,-0.5)"></g><g transform="translate(0.5,0)"></g><g class="svg-summary-con" transform="translate(0.5,0.5)"></g></g><g transform="translate(302, 153.00000381469727)" id="sdjakdjak1"><g id="subline_3b037bd3477b" transform="translate(0.5,-0.5)"></g><g transform="translate(0.5,0)"></g><g class="svg-summary-con" transform="translate(0.5,0.5)"></g></g><g transform="translate(302, 91.00000154972076)" id="sdjakdjak2"><g id="subline_432eb21b2d54" transform="translate(0.5,-0.5)"></g><g transform="translate(0.5,0)"></g><g class="svg-summary-con" transform="translate(0.5,0.5)"></g></g><g transform="translate(302, 30)" id="sdjakdjak3"><g id="subline_5a402b555269" transform="translate(0.5,-0.5)"></g><g transform="translate(0.5,0)"></g><g class="svg-summary-con" transform="translate(0.5,0.5)"></g></g><g transform="translate(30, 117.00000190734863)" id="sdjakdjak4"><g id="subline_root" transform="translate(0.5,-0.5)"></g><g transform="translate(0.5,0)"></g><g class="svg-summary-con" transform="translate(0.5,0.5)"></g></g><g id="root"><rect x="30" y="117.00000190734863" rx="7px" ry="7px" width="172" height="68" style="fill: #ffffff; stroke:none;"></rect><g><text text-anchor="start" align="top" anchor="start" font-family="微软雅黑" font-size="24px" font-weight="normal" fill="rgb(42, 46, 54)"><tspan x="68" y="158.72500076293946"><tspan>项目部署</tspan></tspan></text></g></g></svg>
