<?xml version="1.0" standalone="no"?><?xml-stylesheet type="text/css" href="https://www.processon.com/themes/default/mind/icons/icons.css" ?><!DOCTYPE svg PUBLIC "-//W3C//DTD SVG 1.1//EN" "http://www.w3.org/Graphics/SVG/1.1/DTD/svg11.dtd">
<svg xmlns="http://www.w3.org/2000/svg" version="1.1" xlink="http://www.w3.org/1999/xlink" id="mind-svg-con" width="676.2875366210938px" height="1097.5500183105469px" style="position: absolute; left: 0px; top: 0px; width: 676.288px; height: 1097.55px; background: rgb(247, 247, 247); z-index: 999;"><defs></defs><g id="svgbackgroundid"><defs></defs><rect x="0" y="0" width="676.2875366210938" height="1097.5500183105469" fill="#F7F7F7"></rect></g><g transform="translate(-9884, -9375.000366210938)" id="sdjakdjak8"><defs></defs><g class="svg-topic-con" transform="translate(0.5,0.5)"><path part="right" sub="true" id="line_262a9a176bb6" d="M 10000 9935.500389099121 L 10081 9935.500389099121 C 10121 9935.500389099121 10121 9480.500366210938 10186 9480.500366210938 L 10268 9480.500366210938" stroke="#02ACF4" fill="none" stroke-width="3"></path><path part="right" sub="true" id="line_20cbf7cd9806" d="M 10000 9935.500389099121 L 10081 9935.500389099121 C 10121 9935.500389099121 10121 9610.500396728516 10186 9610.500396728516 L 10275 9610.500396728516" stroke="#0D7C82" fill="none" stroke-width="3"></path><path part="right" sub="true" id="line_1b6837c9b2d6" d="M 10000 9935.500389099121 L 10081 9935.500389099121 C 10121 9935.500389099121 10121 9717.000396728516 10186 9717.000396728516 L 10278 9717.000396728516" stroke="#0FBAB0" fill="none" stroke-width="3"></path><path part="right" sub="true" id="line_493e39e43892" d="M 10000 9935.500389099121 L 10081 9935.500389099121 C 10121 9935.500389099121 10121 9824.000381469727 10186 9824.000381469727 L 10304 9824.000381469727" stroke="#0F80C4" fill="none" stroke-width="3"></path><path part="right" sub="true" id="line_2f1828c3c51b" d="M 10000 9935.500389099121 L 10081 9935.500389099121 C 10121 9935.500389099121 10121 9999.500389099121 10186 9999.500389099121 L 10268 9999.500389099121" stroke="#FCB52A" fill="none" stroke-width="3"></path><path part="right" sub="true" id="line_8ef26246e8c1" d="M 10000 9935.500389099121 L 10081 9935.500389099121 C 10121 9935.500389099121 10121 10174.500396728516 10186 10174.500396728516 L 10278 10174.500396728516" stroke="#FD5155" fill="none" stroke-width="3"></path><path part="right" sub="true" id="line_7206cdd8623f" d="M 10000 9935.500389099121 L 10081 9935.500389099121 C 10121 9935.500389099121 10121 10349.500396728516 10186 10349.500396728516 L 10246 10349.500396728516" stroke="#BE49C4" fill="none" stroke-width="3"></path></g><g class="svg-connection-con" transform="translate(0.5,0.5)"></g><g class="svg-freesums-con" transform="translate(0.5,0.5)"></g></g><g id="7206cdd8623f"><rect x="302" y="944.3875427246094" rx="1px" ry="1px" width="60" height="30" style="fill: transparent; stroke:none;"></rect><g><text text-anchor="start" align="top" anchor="start" font-family="微软雅黑" font-size="16px" font-weight="normal" fill="rgb(13, 11, 34)"><tspan x="316" y="965.2625366210938"><tspan>其他</tspan></tspan></text></g></g><g id="1fd58fcd238d"><rect x="438" y="853.0000305175781" rx="1px" ry="1px" width="78" height="29" style="fill: transparent; stroke:none;"></rect><g><text text-anchor="start" align="top" anchor="start" font-family="微软雅黑" font-size="13px" font-weight="400" fill="rgb(13, 11, 34)"><tspan x="447" y="873.0875366210937"><tspan>Redis集群</tspan></tspan></text></g></g><g id="687cb8e826b7"><rect x="438" y="898.8875427246094" rx="1px" ry="1px" width="57" height="29" style="fill: transparent; stroke:none;"></rect><g><text text-anchor="start" align="top" anchor="start" font-family="微软雅黑" font-size="13px" font-weight="400" fill="rgb(13, 11, 34)"><tspan x="447" y="918.9750183105468"><tspan>JWT库</tspan></tspan></text></g></g><g id="d0aa3e8c63d3"><rect x="438" y="944.7750244140625" rx="1px" ry="1px" width="134" height="29" style="fill: transparent; stroke:none;"></rect><g><text text-anchor="start" align="top" anchor="start" font-family="微软雅黑" font-size="13px" font-weight="400" fill="rgb(13, 11, 34)"><tspan x="447" y="964.8625305175781"><tspan>RabbitMQ即时通讯</tspan></tspan></text></g></g><g id="ef5869bbe906"><rect x="438" y="990.6625366210938" rx="1px" ry="1px" width="147" height="29" style="fill: transparent; stroke:none;"></rect><g><text text-anchor="start" align="top" anchor="start" font-family="微软雅黑" font-size="13px" font-weight="400" fill="rgb(13, 11, 34)"><tspan x="447" y="1010.7500427246093"><tspan>SQL查询Elasticsearch</tspan></tspan></text></g></g><g id="3a6c831af45d"><rect x="438" y="1036.5500183105469" rx="1px" ry="1px" width="154" height="29" style="fill: transparent; stroke:none;"></rect><g><text text-anchor="start" align="top" anchor="start" font-family="微软雅黑" font-size="13px" font-weight="400" fill="rgb(13, 11, 34)"><tspan x="447" y="1056.6375244140625"><tspan>Jenkins自动化部署技巧</tspan></tspan></text></g></g><g id="8ef26246e8c1"><rect x="302" y="769.5500335693359" rx="1px" ry="1px" width="92" height="30" style="fill: transparent; stroke:none;"></rect><g><text text-anchor="start" align="top" anchor="start" font-family="微软雅黑" font-size="16px" font-weight="normal" fill="rgb(13, 11, 34)"><tspan x="316" y="790.4250274658203"><tspan>定时任务</tspan></tspan></text></g></g><g id="5bb37465054a"><rect x="470" y="747.0000305175781" rx="1px" ry="1px" width="60" height="29" style="fill: transparent; stroke:none;"></rect><g><text text-anchor="start" align="top" anchor="start" font-family="微软雅黑" font-size="13px" font-weight="400" fill="rgb(13, 11, 34)"><tspan x="479" y="767.0875213623046"><tspan>Quartz</tspan></tspan></text></g></g><g id="6dd63b024e8c"><rect x="470" y="792.8875274658203" rx="1px" ry="1px" width="78" height="29" style="fill: transparent; stroke:none;"></rect><g><text text-anchor="start" align="top" anchor="start" font-family="微软雅黑" font-size="13px" font-weight="400" fill="rgb(13, 11, 34)"><tspan x="479" y="812.9750335693359"><tspan>PowerJob</tspan></tspan></text></g></g><g id="2f1828c3c51b"><rect x="302" y="594.3875246047974" rx="1px" ry="1px" width="82" height="30" style="fill: transparent; stroke:none;"></rect><g><text text-anchor="start" align="top" anchor="start" font-family="微软雅黑" font-size="16px" font-weight="normal" fill="rgb(13, 11, 34)"><tspan x="316" y="615.2625242233277"><tspan>Docker</tspan></tspan></text></g></g><g id="4bb56e0f6370"><rect x="460.28753662109375" y="503.0000228881836" rx="1px" ry="1px" width="70" height="29" style="fill: transparent; stroke:none;"></rect><g><text text-anchor="start" align="top" anchor="start" font-family="微软雅黑" font-size="13px" font-weight="400" fill="rgb(13, 11, 34)"><tspan x="469.28753662109375" y="523.0875213623046"><tspan>安全访问</tspan></tspan></text></g></g><g id="8dfdd261754e"><rect x="460.28753662109375" y="548.887523651123" rx="1px" ry="1px" width="144" height="29" style="fill: transparent; stroke:none;"></rect><g><text text-anchor="start" align="top" anchor="start" font-family="微软雅黑" font-size="13px" font-weight="400" fill="rgb(13, 11, 34)"><tspan x="469.28753662109375" y="568.9750240325927"><tspan>fabric8io Maven插件</tspan></tspan></text></g></g><g id="0bb338389f9f"><rect x="460.28753662109375" y="594.7750244140625" rx="1px" ry="1px" width="186" height="29" style="fill: transparent; stroke:none;"></rect><g><text text-anchor="start" align="top" anchor="start" font-family="微软雅黑" font-size="13px" font-weight="400" fill="rgb(13, 11, 34)"><tspan x="469.28753662109375" y="614.8625247955322"><tspan>SpringBoot官方 Maven插件</tspan></tspan></text></g></g><g id="a4de0b1014dd"><rect x="460.28753662109375" y="640.662525177002" rx="1px" ry="1px" width="81" height="29" style="fill: transparent; stroke:none;"></rect><g><text text-anchor="start" align="top" anchor="start" font-family="微软雅黑" font-size="13px" font-weight="400" fill="rgb(13, 11, 34)"><tspan x="469.28753662109375" y="660.750023651123"><tspan>Dockerfile</tspan></tspan></text></g></g><g id="bb89ec3cb0cc"><rect x="460.28753662109375" y="686.5500259399414" rx="1px" ry="1px" width="114" height="29" style="fill: transparent; stroke:none;"></rect><g><text text-anchor="start" align="top" anchor="start" font-family="微软雅黑" font-size="13px" font-weight="400" fill="rgb(13, 11, 34)"><tspan x="469.28753662109375" y="706.6375244140625"><tspan>Harbor镜像仓库</tspan></tspan></text></g></g><g id="493e39e43892"><rect x="302" y="418.5500183105469" rx="1px" ry="1px" width="118" height="30" style="fill: transparent; stroke:none;"></rect><g><text text-anchor="start" align="top" anchor="start" font-family="微软雅黑" font-size="16px" font-weight="normal" fill="rgb(13, 11, 34)"><tspan x="316" y="439.42502746582034"><tspan>API文档生成</tspan></tspan></text></g></g><g id="3ceecec383e8"><rect x="495.75" y="396.00001525878906" rx="1px" ry="1px" width="61" height="29" style="fill: transparent; stroke:none;"></rect><g><text text-anchor="start" align="top" anchor="start" font-family="微软雅黑" font-size="13px" font-weight="400" fill="rgb(13, 11, 34)"><tspan x="504.75" y="416.0875213623047"><tspan>Knife4j</tspan></tspan></text></g></g><g id="7f3172c5a60a"><rect x="495.75" y="441.8875274658203" rx="1px" ry="1px" width="46" height="29" style="fill: transparent; stroke:none;"></rect><g><text text-anchor="start" align="top" anchor="start" font-family="微软雅黑" font-size="13px" font-weight="400" fill="rgb(13, 11, 34)"><tspan x="504.75" y="461.9750183105469"><tspan>YApi</tspan></tspan></text></g></g><g id="1b6837c9b2d6"><rect x="302" y="311.5500183105469" rx="1px" ry="1px" width="92" height="30" style="fill: transparent; stroke:none;"></rect><g><text text-anchor="start" align="top" anchor="start" font-family="微软雅黑" font-size="16px" font-weight="normal" fill="rgb(13, 11, 34)"><tspan x="316" y="332.4250122070313"><tspan>日志收集</tspan></tspan></text></g></g><g id="a569631a3fcf"><rect x="470" y="289.0000305175781" rx="1px" ry="1px" width="65" height="29" style="fill: transparent; stroke:none;"></rect><g><text text-anchor="start" align="top" anchor="start" font-family="微软雅黑" font-size="13px" font-weight="400" fill="rgb(13, 11, 34)"><tspan x="479" y="309.08750610351564"><tspan>Fluentd</tspan></tspan></text></g></g><g id="12832e1a0014"><rect x="470" y="334.8875274658203" rx="1px" ry="1px" width="67" height="29" style="fill: transparent; stroke:none;"></rect><g><text text-anchor="start" align="top" anchor="start" font-family="微软雅黑" font-size="13px" font-weight="400" fill="rgb(13, 11, 34)"><tspan x="479" y="354.9750183105469"><tspan>Filebeat</tspan></tspan></text></g></g><g id="20cbf7cd9806"><rect x="302" y="205.55001831054688" rx="1px" ry="1px" width="89" height="30" style="fill: transparent; stroke:none;"></rect><g><text text-anchor="start" align="top" anchor="start" font-family="微软雅黑" font-size="16px" font-weight="normal" fill="rgb(13, 11, 34)"><tspan x="316" y="226.42501220703124"><tspan>MyBatis</tspan></tspan></text></g></g><g id="a624070c2c7e"><rect x="466.61248779296875" y="183.00003051757812" rx="1px" ry="1px" width="98" height="29" style="fill: transparent; stroke:none;"></rect><g><text text-anchor="start" align="top" anchor="start" font-family="微软雅黑" font-size="13px" font-weight="400" fill="rgb(13, 11, 34)"><tspan x="475.61248779296875" y="203.08750610351564"><tspan>MyBatis-Plus</tspan></tspan></text></g></g><g id="42f5f78d4022"><rect x="466.61248779296875" y="228.88751220703125" rx="1px" ry="1px" width="101" height="29" style="fill: transparent; stroke:none;"></rect><g><text text-anchor="start" align="top" anchor="start" font-family="微软雅黑" font-size="13px" font-weight="400" fill="rgb(13, 11, 34)"><tspan x="475.61248779296875" y="248.9750183105469"><tspan>Dynamic SQL</tspan></tspan></text></g></g><g id="262a9a176bb6"><rect x="302" y="75.50003051757812" rx="1px" ry="1px" width="82" height="29" style="fill: transparent; stroke:none;"></rect><g><text text-anchor="start" align="top" anchor="start" font-family="微软雅黑" font-size="16px" font-weight="normal" fill="rgb(13, 11, 34)"><tspan x="316" y="96.3750244140625"><tspan>MySQL</tspan></tspan></text></g></g><g id="eb641bc596ea"><rect x="460.5875244140625" y="30" rx="1px" ry="1px" width="70" height="29" style="fill: transparent; stroke:none;"></rect><g><text text-anchor="start" align="top" anchor="start" font-family="微软雅黑" font-size="13px" font-weight="400" fill="rgb(13, 11, 34)"><tspan x="469.5875244140625" y="50.08753662109375"><tspan>主从复制</tspan></tspan></text></g></g><g id="84dbb8c00b14"><rect x="460.5875244140625" y="75.88751220703125" rx="1px" ry="1px" width="102" height="29" style="fill: transparent; stroke:none;"></rect><g><text text-anchor="start" align="top" anchor="start" font-family="微软雅黑" font-size="13px" font-weight="400" fill="rgb(13, 11, 34)"><tspan x="469.5875244140625" y="95.97501831054687"><tspan>读写分离Gaea</tspan></tspan></text></g></g><g id="83766f795db1"><rect x="460.5875244140625" y="121.7750244140625" rx="1px" ry="1px" width="105" height="29" style="fill: transparent; stroke:none;"></rect><g><text text-anchor="start" align="top" anchor="start" font-family="微软雅黑" font-size="13px" font-weight="400" fill="rgb(13, 11, 34)"><tspan x="469.5875244140625" y="141.86253051757814"><tspan>数据同步Canel</tspan></tspan></text></g></g><g transform="translate(302, 853.0000305175781)" id="sdjakdjak0"><g id="subline_7206cdd8623f" transform="translate(0.5,-0.5)"><path id="line_1fd58fcd238d" d="M 60 122 L 60 122 M 60 122 C 106 122 98 30 136 30 L 214 30" p="7206cdd8623f" stroke="#BE49C4" fill="none" stroke-linecap="square" stroke-width="3"></path><path id="line_687cb8e826b7" d="M 60 122 L 60 122 M 60 122 C 106 122 98 76 136 76 L 193 76" p="7206cdd8623f" stroke="#BE49C4" fill="none" stroke-linecap="square" stroke-width="3"></path><path id="line_d0aa3e8c63d3" d="M 60 122 L 60 122 M 60 122 C 106 122 98 122 136 122 L 270 122" p="7206cdd8623f" stroke="#BE49C4" fill="none" stroke-linecap="square" stroke-width="3"></path><path id="line_ef5869bbe906" d="M 60 122 L 60 122 M 60 122 C 106 122 98 168 136 168 L 283 168" p="7206cdd8623f" stroke="#BE49C4" fill="none" stroke-linecap="square" stroke-width="3"></path><path id="line_3a6c831af45d" d="M 60 122 L 60 122 M 60 122 C 106 122 98 214 136 214 L 290 214" p="7206cdd8623f" stroke="#BE49C4" fill="none" stroke-linecap="square" stroke-width="3"></path></g><g transform="translate(0.5,0)"></g><g class="svg-summary-con" transform="translate(0.5,0.5)"></g></g><g transform="translate(302, 747.0000305175781)" id="sdjakdjak1"><g id="subline_8ef26246e8c1" transform="translate(0.5,-0.5)"><path id="line_5bb37465054a" d="M 92 55 L 92 55 M 92 55 C 138 55 130 30 168 30 L 228 30" p="8ef26246e8c1" stroke="#FD5155" fill="none" stroke-linecap="square" stroke-width="3"></path><path id="line_6dd63b024e8c" d="M 92 55 L 92 55 M 92 55 C 138 55 130 76 168 76 L 246 76" p="8ef26246e8c1" stroke="#FD5155" fill="none" stroke-linecap="square" stroke-width="3"></path></g><g transform="translate(0.5,0)"></g><g class="svg-summary-con" transform="translate(0.5,0.5)"></g></g><g transform="translate(302, 503.0000228881836)" id="sdjakdjak2"><g id="subline_2f1828c3c51b" transform="translate(0.5,-0.5)"><path id="line_4bb56e0f6370" d="M 82 123 L 82 123 M 82 123 C 128.28753662109375 123 120.14376831054688 30 158.28753662109375 30 L 228.28753662109375 30" p="2f1828c3c51b" stroke="#FCB52A" fill="none" stroke-linecap="square" stroke-width="3"></path><path id="line_8dfdd261754e" d="M 82 123 L 82 123 M 82 123 C 128.28753662109375 123 120.14376831054688 76 158.28753662109375 76 L 302.28753662109375 76" p="2f1828c3c51b" stroke="#FCB52A" fill="none" stroke-linecap="square" stroke-width="3"></path><path id="line_0bb338389f9f" d="M 82 123 L 82 123 M 82 123 C 128.28753662109375 123 120.14376831054688 122 158.28753662109375 122 L 344.28753662109375 122" p="2f1828c3c51b" stroke="#FCB52A" fill="none" stroke-linecap="square" stroke-width="3"></path><path id="line_a4de0b1014dd" d="M 82 123 L 82 123 M 82 123 C 128.28753662109375 123 120.14376831054688 168 158.28753662109375 168 L 239.28753662109375 168" p="2f1828c3c51b" stroke="#FCB52A" fill="none" stroke-linecap="square" stroke-width="3"></path><path id="line_bb89ec3cb0cc" d="M 82 123 L 82 123 M 82 123 C 128.28753662109375 123 120.14376831054688 214 158.28753662109375 214 L 272.28753662109375 214" p="2f1828c3c51b" stroke="#FCB52A" fill="none" stroke-linecap="square" stroke-width="3"></path></g><g transform="translate(0.5,0)"></g><g class="svg-summary-con" transform="translate(0.5,0.5)"></g></g><g transform="translate(302, 396.00001525878906)" id="sdjakdjak3"><g id="subline_493e39e43892" transform="translate(0.5,-0.5)"><path id="line_3ceecec383e8" d="M 118 54 L 118 54 M 118 54 C 163.75 54 155.875 30 193.75 30 L 254.75 30" p="493e39e43892" stroke="#0F80C4" fill="none" stroke-linecap="square" stroke-width="3"></path><path id="line_7f3172c5a60a" d="M 118 54 L 118 54 M 118 54 C 163.75 54 155.875 76 193.75 76 L 239.75 76" p="493e39e43892" stroke="#0F80C4" fill="none" stroke-linecap="square" stroke-width="3"></path></g><g transform="translate(0.5,0)"></g><g class="svg-summary-con" transform="translate(0.5,0.5)"></g></g><g transform="translate(302, 289.0000305175781)" id="sdjakdjak4"><g id="subline_1b6837c9b2d6" transform="translate(0.5,-0.5)"><path id="line_a569631a3fcf" d="M 92 55 L 92 55 M 92 55 C 138 55 130 30 168 30 L 233 30" p="1b6837c9b2d6" stroke="#0FBAB0" fill="none" stroke-linecap="square" stroke-width="3"></path><path id="line_12832e1a0014" d="M 92 55 L 92 55 M 92 55 C 138 55 130 76 168 76 L 235 76" p="1b6837c9b2d6" stroke="#0FBAB0" fill="none" stroke-linecap="square" stroke-width="3"></path></g><g transform="translate(0.5,0)"></g><g class="svg-summary-con" transform="translate(0.5,0.5)"></g></g><g transform="translate(302, 183.00003051757812)" id="sdjakdjak5"><g id="subline_20cbf7cd9806" transform="translate(0.5,-0.5)"><path id="line_a624070c2c7e" d="M 89 55 L 89 55 M 89 55 C 134.61248779296875 55 126.80624389648438 30 164.61248779296875 30 L 262.61248779296875 30" p="20cbf7cd9806" stroke="#0D7C82" fill="none" stroke-linecap="square" stroke-width="3"></path><path id="line_42f5f78d4022" d="M 89 55 L 89 55 M 89 55 C 134.61248779296875 55 126.80624389648438 76 164.61248779296875 76 L 265.61248779296875 76" p="20cbf7cd9806" stroke="#0D7C82" fill="none" stroke-linecap="square" stroke-width="3"></path></g><g transform="translate(0.5,0)"></g><g class="svg-summary-con" transform="translate(0.5,0.5)"></g></g><g transform="translate(302, 30)" id="sdjakdjak6"><g id="subline_262a9a176bb6" transform="translate(0.5,-0.5)"><path id="line_eb641bc596ea" d="M 82 76 L 82 76 M 82 76 C 128.5875244140625 76 120.29376220703125 30 158.5875244140625 30 L 228.5875244140625 30" p="262a9a176bb6" stroke="#02ACF4" fill="none" stroke-linecap="square" stroke-width="3"></path><path id="line_84dbb8c00b14" d="M 82 76 L 82 76 M 82 76 C 128.5875244140625 76 120.29376220703125 76 158.5875244140625 76 L 260.5875244140625 76" p="262a9a176bb6" stroke="#02ACF4" fill="none" stroke-linecap="square" stroke-width="3"></path><path id="line_83766f795db1" d="M 82 76 L 82 76 M 82 76 C 128.5875244140625 76 120.29376220703125 122 158.5875244140625 122 L 263.5875244140625 122" p="262a9a176bb6" stroke="#02ACF4" fill="none" stroke-linecap="square" stroke-width="3"></path></g><g transform="translate(0.5,0)"></g><g class="svg-summary-con" transform="translate(0.5,0.5)"></g></g><g transform="translate(30, 527.0000228881836)" id="sdjakdjak7"><g id="subline_root" transform="translate(0.5,-0.5)"></g><g transform="translate(0.5,0)"></g><g class="svg-summary-con" transform="translate(0.5,0.5)"></g></g><g id="root"><rect x="30" y="527.0000228881836" rx="7px" ry="7px" width="172" height="68" style="fill: #ffffff; stroke:none;"></rect><g><text text-anchor="start" align="top" anchor="start" font-family="微软雅黑" font-size="24px" font-weight="normal" fill="rgb(42, 46, 54)"><tspan x="68" y="568.725023651123"><tspan>扩展学习</tspan></tspan></text></g></g></svg>
